%TF.GenerationSoftware,KiCad,Pcbnew,9.0.1*%
%TF.CreationDate,2026-03-08T18:53:39+01:00*%
%TF.ProjectId,RT_STACK,52545f53-5441-4434-9b2e-6b696361645f,rev?*%
%TF.SameCoordinates,Original*%
%TF.FileFunction,Soldermask,Bot*%
%TF.FilePolarity,Negative*%
%FSLAX46Y46*%
G04 Gerber Fmt 4.6, Leading zero omitted, Abs format (unit mm)*
G04 Created by KiCad (PCBNEW 9.0.1) date 2026-03-08 18:53:39*
%MOMM*%
%LPD*%
G01*
G04 APERTURE LIST*
G04 Aperture macros list*
%AMRoundRect*
0 Rectangle with rounded corners*
0 $1 Rounding radius*
0 $2 $3 $4 $5 $6 $7 $8 $9 X,Y pos of 4 corners*
0 Add a 4 corners polygon primitive as box body*
4,1,4,$2,$3,$4,$5,$6,$7,$8,$9,$2,$3,0*
0 Add four circle primitives for the rounded corners*
1,1,$1+$1,$2,$3*
1,1,$1+$1,$4,$5*
1,1,$1+$1,$6,$7*
1,1,$1+$1,$8,$9*
0 Add four rect primitives between the rounded corners*
20,1,$1+$1,$2,$3,$4,$5,0*
20,1,$1+$1,$4,$5,$6,$7,0*
20,1,$1+$1,$6,$7,$8,$9,0*
20,1,$1+$1,$8,$9,$2,$3,0*%
G04 Aperture macros list end*
%ADD10C,3.800000*%
%ADD11C,2.600000*%
%ADD12R,0.800000X4.600000*%
%ADD13R,10.800000X9.400000*%
%ADD14R,1.700000X1.700000*%
%ADD15C,1.700000*%
%ADD16C,1.400000*%
%ADD17O,1.400000X1.400000*%
%ADD18R,2.400000X2.400000*%
%ADD19C,2.400000*%
%ADD20C,3.600000*%
%ADD21C,5.600000*%
%ADD22R,1.400000X1.400000*%
%ADD23C,4.650000*%
%ADD24C,2.946400*%
%ADD25C,1.752600*%
%ADD26C,1.447800*%
%ADD27C,1.955800*%
%ADD28RoundRect,0.250000X-0.600000X-0.600000X0.600000X-0.600000X0.600000X0.600000X-0.600000X0.600000X0*%
%ADD29RoundRect,0.135000X-0.185000X0.135000X-0.185000X-0.135000X0.185000X-0.135000X0.185000X0.135000X0*%
%ADD30RoundRect,0.250000X-0.350000X0.850000X-0.350000X-0.850000X0.350000X-0.850000X0.350000X0.850000X0*%
%ADD31RoundRect,0.249997X-2.650003X2.950003X-2.650003X-2.950003X2.650003X-2.950003X2.650003X2.950003X0*%
%ADD32RoundRect,0.250000X0.850000X0.350000X-0.850000X0.350000X-0.850000X-0.350000X0.850000X-0.350000X0*%
%ADD33RoundRect,0.249997X2.950003X2.650003X-2.950003X2.650003X-2.950003X-2.650003X2.950003X-2.650003X0*%
%ADD34RoundRect,0.140000X-0.170000X0.140000X-0.170000X-0.140000X0.170000X-0.140000X0.170000X0.140000X0*%
%ADD35RoundRect,0.250000X0.350000X-0.850000X0.350000X0.850000X-0.350000X0.850000X-0.350000X-0.850000X0*%
%ADD36RoundRect,0.249997X2.650003X-2.950003X2.650003X2.950003X-2.650003X2.950003X-2.650003X-2.950003X0*%
%ADD37RoundRect,0.250000X-2.050000X-0.300000X2.050000X-0.300000X2.050000X0.300000X-2.050000X0.300000X0*%
%ADD38RoundRect,0.250002X-4.449998X-5.149998X4.449998X-5.149998X4.449998X5.149998X-4.449998X5.149998X0*%
%ADD39RoundRect,0.250000X-0.850000X-0.350000X0.850000X-0.350000X0.850000X0.350000X-0.850000X0.350000X0*%
%ADD40RoundRect,0.249997X-2.950003X-2.650003X2.950003X-2.650003X2.950003X2.650003X-2.950003X2.650003X0*%
%ADD41RoundRect,0.250000X2.050000X0.300000X-2.050000X0.300000X-2.050000X-0.300000X2.050000X-0.300000X0*%
%ADD42RoundRect,0.250002X4.449998X5.149998X-4.449998X5.149998X-4.449998X-5.149998X4.449998X-5.149998X0*%
G04 APERTURE END LIST*
D10*
%TO.C,H11*%
X169796667Y-88200000D03*
D11*
X169796667Y-88200000D03*
%TD*%
D12*
%TO.C,IC12*%
X126716667Y-95974000D03*
X127986667Y-95974000D03*
X129256667Y-95974000D03*
X130526667Y-95974000D03*
X131796667Y-95974000D03*
X133066667Y-95974000D03*
X134336667Y-95974000D03*
D13*
X130526667Y-105124000D03*
%TD*%
D12*
%TO.C,IC11*%
X140590000Y-95974000D03*
X141860000Y-95974000D03*
X143130000Y-95974000D03*
X144400000Y-95974000D03*
X145670000Y-95974000D03*
X146940000Y-95974000D03*
X148210000Y-95974000D03*
D13*
X144400000Y-105124000D03*
%TD*%
D12*
%TO.C,IC10*%
X154590000Y-95974000D03*
X155860000Y-95974000D03*
X157130000Y-95974000D03*
X158400000Y-95974000D03*
X159670000Y-95974000D03*
X160940000Y-95974000D03*
X162210000Y-95974000D03*
D13*
X158400000Y-105124000D03*
%TD*%
D12*
%TO.C,IC9*%
X168526667Y-95974000D03*
X169796667Y-95974000D03*
X171066667Y-95974000D03*
X172336667Y-95974000D03*
X173606667Y-95974000D03*
X174876667Y-95974000D03*
X176146667Y-95974000D03*
D13*
X172336667Y-105124000D03*
%TD*%
D12*
%TO.C,IC8*%
X126716667Y-115037000D03*
X127986667Y-115037000D03*
X129256667Y-115037000D03*
X130526667Y-115037000D03*
X131796667Y-115037000D03*
X133066667Y-115037000D03*
X134336667Y-115037000D03*
D13*
X130526667Y-124187000D03*
%TD*%
D12*
%TO.C,IC7*%
X140590000Y-115037000D03*
X141860000Y-115037000D03*
X143130000Y-115037000D03*
X144400000Y-115037000D03*
X145670000Y-115037000D03*
X146940000Y-115037000D03*
X148210000Y-115037000D03*
D13*
X144400000Y-124187000D03*
%TD*%
D12*
%TO.C,IC6*%
X154590000Y-115037000D03*
X155860000Y-115037000D03*
X157130000Y-115037000D03*
X158400000Y-115037000D03*
X159670000Y-115037000D03*
X160940000Y-115037000D03*
X162210000Y-115037000D03*
D13*
X158400000Y-124187000D03*
%TD*%
D12*
%TO.C,IC5*%
X168526667Y-115037000D03*
X169796667Y-115037000D03*
X171066667Y-115037000D03*
X172336667Y-115037000D03*
X173606667Y-115037000D03*
X174876667Y-115037000D03*
X176146667Y-115037000D03*
D13*
X172336667Y-124187000D03*
%TD*%
D12*
%TO.C,IC4*%
X126716667Y-134100000D03*
X127986667Y-134100000D03*
X129256667Y-134100000D03*
X130526667Y-134100000D03*
X131796667Y-134100000D03*
X133066667Y-134100000D03*
X134336667Y-134100000D03*
D13*
X130526667Y-143250000D03*
%TD*%
D12*
%TO.C,IC3*%
X140590000Y-134100000D03*
X141860000Y-134100000D03*
X143130000Y-134100000D03*
X144400000Y-134100000D03*
X145670000Y-134100000D03*
X146940000Y-134100000D03*
X148210000Y-134100000D03*
D13*
X144400000Y-143250000D03*
%TD*%
D12*
%TO.C,IC2*%
X154590000Y-134100000D03*
X155860000Y-134100000D03*
X157130000Y-134100000D03*
X158400000Y-134100000D03*
X159670000Y-134100000D03*
X160940000Y-134100000D03*
X162210000Y-134100000D03*
D13*
X158400000Y-143250000D03*
%TD*%
D12*
%TO.C,IC1*%
X168526667Y-134100000D03*
X169796667Y-134100000D03*
X171066667Y-134100000D03*
X172336667Y-134100000D03*
X173606667Y-134100000D03*
X174876667Y-134100000D03*
X176146667Y-134100000D03*
D13*
X172336667Y-143250000D03*
%TD*%
D11*
%TO.C,H10*%
X155860000Y-88200000D03*
D10*
X155860000Y-88200000D03*
%TD*%
D14*
%TO.C,J6*%
X103700000Y-158890000D03*
D15*
X103700000Y-156350000D03*
X101160000Y-158890000D03*
X101160000Y-156350000D03*
X98620000Y-158890000D03*
X98620000Y-156350000D03*
X96080000Y-158890000D03*
X96080000Y-156350000D03*
X93540000Y-158890000D03*
X93540000Y-156350000D03*
X91000000Y-158890000D03*
X91000000Y-156350000D03*
X88460000Y-158890000D03*
X88460000Y-156350000D03*
X85920000Y-158890000D03*
X85920000Y-156350000D03*
X83380000Y-158890000D03*
X83380000Y-156350000D03*
X80840000Y-158890000D03*
X80840000Y-156350000D03*
%TD*%
D11*
%TO.C,H7*%
X141400000Y-158100000D03*
D10*
X141400000Y-158100000D03*
%TD*%
D14*
%TO.C,J4*%
X131640000Y-153810000D03*
D15*
X131640000Y-151270000D03*
X129100000Y-153810000D03*
X129100000Y-151270000D03*
X126560000Y-153810000D03*
X126560000Y-151270000D03*
X124020000Y-153810000D03*
X124020000Y-151270000D03*
X121480000Y-153810000D03*
X121480000Y-151270000D03*
X118940000Y-153810000D03*
X118940000Y-151270000D03*
X116400000Y-153810000D03*
X116400000Y-151270000D03*
X113860000Y-153810000D03*
X113860000Y-151270000D03*
X111320000Y-153810000D03*
X111320000Y-151270000D03*
X108780000Y-153810000D03*
X108780000Y-151270000D03*
%TD*%
D16*
%TO.C,R149*%
X138560000Y-87800000D03*
D17*
X138560000Y-89700000D03*
%TD*%
D18*
%TO.C,C85*%
X53550000Y-54800000D03*
D19*
X53550000Y-49800000D03*
%TD*%
D11*
%TO.C,H9*%
X128000000Y-88200000D03*
D10*
X128000000Y-88200000D03*
%TD*%
D14*
%TO.C,J7*%
X131640000Y-158890000D03*
D15*
X131640000Y-156350000D03*
X129100000Y-158890000D03*
X129100000Y-156350000D03*
X126560000Y-158890000D03*
X126560000Y-156350000D03*
X124020000Y-158890000D03*
X124020000Y-156350000D03*
X121480000Y-158890000D03*
X121480000Y-156350000D03*
X118940000Y-158890000D03*
X118940000Y-156350000D03*
X116400000Y-158890000D03*
X116400000Y-156350000D03*
X113860000Y-158890000D03*
X113860000Y-156350000D03*
X111320000Y-158890000D03*
X111320000Y-156350000D03*
X108780000Y-158890000D03*
X108780000Y-156350000D03*
%TD*%
D18*
%TO.C,C84*%
X95700000Y-69800000D03*
D19*
X95700000Y-64800000D03*
%TD*%
D16*
%TO.C,R150*%
X141380000Y-87800000D03*
D17*
X141380000Y-89700000D03*
%TD*%
D18*
%TO.C,C83*%
X39500000Y-54800000D03*
D19*
X39500000Y-49800000D03*
%TD*%
D16*
%TO.C,R161*%
X148430000Y-86600000D03*
D17*
X148430000Y-88500000D03*
%TD*%
D16*
%TO.C,R152*%
X144200000Y-87700000D03*
D17*
X144200000Y-89600000D03*
%TD*%
D16*
%TO.C,R156*%
X149840000Y-87505000D03*
D17*
X149840000Y-89405000D03*
%TD*%
D18*
%TO.C,C81*%
X104123959Y-79200000D03*
D19*
X99123959Y-79200000D03*
%TD*%
D18*
%TO.C,C82*%
X80400000Y-69800000D03*
D19*
X80400000Y-64800000D03*
%TD*%
D18*
%TO.C,C86*%
X60575000Y-43600000D03*
D19*
X60575000Y-38600000D03*
%TD*%
D20*
%TO.C,H4*%
X175975000Y-175975000D03*
D21*
X175975000Y-175975000D03*
%TD*%
D14*
%TO.C,J3*%
X103700000Y-153810000D03*
D15*
X103700000Y-151270000D03*
X101160000Y-153810000D03*
X101160000Y-151270000D03*
X98620000Y-153810000D03*
X98620000Y-151270000D03*
X96080000Y-153810000D03*
X96080000Y-151270000D03*
X93540000Y-153810000D03*
X93540000Y-151270000D03*
X91000000Y-153810000D03*
X91000000Y-151270000D03*
X88460000Y-153810000D03*
X88460000Y-151270000D03*
X85920000Y-153810000D03*
X85920000Y-151270000D03*
X83380000Y-153810000D03*
X83380000Y-151270000D03*
X80840000Y-153810000D03*
X80840000Y-151270000D03*
%TD*%
D11*
%TO.C,H8*%
X155900000Y-41690000D03*
D10*
X155900000Y-41690000D03*
%TD*%
D18*
%TO.C,C90*%
X46525000Y-43476041D03*
D19*
X46525000Y-38476041D03*
%TD*%
D22*
%TO.C,J10*%
X78625000Y-43025000D03*
D16*
X81365000Y-43025000D03*
X84105000Y-43025000D03*
X86845000Y-43025000D03*
X89585000Y-43025000D03*
X79995000Y-40485000D03*
X82735000Y-40485000D03*
X85475000Y-40485000D03*
X88215000Y-40485000D03*
D23*
X71610000Y-41755000D03*
X96600000Y-41755000D03*
%TD*%
D20*
%TO.C,H3*%
X175975000Y-34025000D03*
D21*
X175975000Y-34025000D03*
%TD*%
D16*
%TO.C,R160*%
X145610000Y-86705000D03*
D17*
X145610000Y-88605000D03*
%TD*%
D16*
%TO.C,R153*%
X147020000Y-87605000D03*
D17*
X147020000Y-89505000D03*
%TD*%
D18*
%TO.C,C87*%
X67600000Y-54800000D03*
D19*
X67600000Y-49800000D03*
%TD*%
D24*
%TO.C,J1*%
X116674891Y-177299999D03*
D25*
X49604888Y-165500002D03*
X52604890Y-165500002D03*
X55604889Y-165500002D03*
X58604888Y-165500002D03*
X61604887Y-165500002D03*
X64604886Y-165500002D03*
X67604885Y-165500002D03*
X70604884Y-165500002D03*
X73604883Y-165500002D03*
X49604888Y-168500001D03*
X52604890Y-168500001D03*
X55604889Y-168500001D03*
X58604888Y-168500001D03*
X61604887Y-168500001D03*
X64604886Y-168500001D03*
X67604885Y-168500001D03*
X70604884Y-168500001D03*
X73604883Y-168500001D03*
X49604888Y-171500000D03*
X52604890Y-171500000D03*
X55604889Y-171500000D03*
X58604888Y-171500000D03*
X61604887Y-171500000D03*
X64604886Y-171500000D03*
X67604885Y-171500000D03*
X70604884Y-171500000D03*
X73604883Y-171500000D03*
X49604888Y-174499999D03*
X52604890Y-174499999D03*
X55604889Y-174499999D03*
X58604888Y-174499999D03*
X61604887Y-174499999D03*
X64604886Y-174499999D03*
X67604885Y-174499999D03*
X70604884Y-174499999D03*
X73604883Y-174499999D03*
D26*
X78254891Y-162649999D03*
X80654891Y-162649999D03*
X83054891Y-162649999D03*
X85454891Y-162649999D03*
X87854891Y-162649999D03*
X90254891Y-162649999D03*
X92654891Y-162649999D03*
X97054891Y-162649999D03*
X99454891Y-162649999D03*
X101854891Y-162649999D03*
X104254891Y-162649999D03*
X106654891Y-162649999D03*
X109054891Y-162649999D03*
X78254891Y-165049999D03*
X80654891Y-165049999D03*
X83054891Y-165049999D03*
X85454891Y-165049999D03*
X87854891Y-165049999D03*
X90254891Y-165049999D03*
X92654891Y-165049999D03*
X97054891Y-165049999D03*
X99454891Y-165049999D03*
X101854891Y-165049999D03*
X104254891Y-165049999D03*
X106654891Y-165049999D03*
X109054891Y-165049999D03*
X78254891Y-167449999D03*
X80654891Y-167449999D03*
X83054891Y-167449999D03*
X85454891Y-167449999D03*
X87854891Y-167449999D03*
X90254891Y-167449999D03*
X92654891Y-167449999D03*
X97054891Y-167449999D03*
X99454891Y-167449999D03*
X101854891Y-167449999D03*
X104254891Y-167449999D03*
X106654891Y-167449999D03*
X109054891Y-167449999D03*
X78254891Y-169849999D03*
X80654891Y-169849999D03*
X83054891Y-169849999D03*
X85454891Y-169849999D03*
X87854891Y-169849999D03*
X90254891Y-169849999D03*
X92654891Y-169849999D03*
X97054891Y-169849999D03*
X99454891Y-169849999D03*
X101854891Y-169849999D03*
X104254891Y-169849999D03*
X106654891Y-169849999D03*
X109054891Y-169849999D03*
X78254891Y-172249999D03*
X80654891Y-172249999D03*
X83054891Y-172249999D03*
X85454891Y-172249999D03*
X87854891Y-172249999D03*
X90254891Y-172249999D03*
X92654891Y-172249999D03*
X97054891Y-172249999D03*
X99454891Y-172249999D03*
X101854891Y-172249999D03*
X104254891Y-172249999D03*
X106654891Y-172249999D03*
X109054891Y-172249999D03*
X78254891Y-174649999D03*
X80654891Y-174649999D03*
X83054891Y-174649999D03*
X85454891Y-174649999D03*
X87854891Y-174649999D03*
X90254891Y-174649999D03*
X92654891Y-174649999D03*
X97054891Y-174649999D03*
X99454891Y-174649999D03*
X101854891Y-174649999D03*
X104254891Y-174649999D03*
X106654891Y-174649999D03*
X109054891Y-174649999D03*
D27*
X125654891Y-163299999D03*
X130654891Y-163299999D03*
X125654891Y-168299999D03*
X130654891Y-168299999D03*
X125654891Y-173299999D03*
X130654891Y-173299999D03*
D26*
X137854891Y-162649999D03*
X140254891Y-162649999D03*
X142654891Y-162649999D03*
X145054891Y-162649999D03*
X147454891Y-162649999D03*
X149854892Y-162649999D03*
X152254892Y-162649999D03*
X154654892Y-162649999D03*
X157054892Y-162649999D03*
X159454892Y-162649999D03*
X161854892Y-162649999D03*
X137854891Y-165049999D03*
X140254891Y-165049999D03*
X142654891Y-165049999D03*
X145054891Y-165049999D03*
X147454891Y-165049999D03*
X149854892Y-165049999D03*
X152254892Y-165049999D03*
X154654892Y-165049999D03*
X157054892Y-165049999D03*
X159454892Y-165049999D03*
X161854892Y-165049999D03*
X137854891Y-167449999D03*
X140254891Y-167449999D03*
X142654891Y-167449999D03*
X145054891Y-167449999D03*
X147454891Y-167449999D03*
X149854892Y-167449999D03*
X152254892Y-167449999D03*
X154654892Y-167449999D03*
X157054892Y-167449999D03*
X159454892Y-167449999D03*
X161854892Y-167449999D03*
X137854891Y-169849999D03*
X140254891Y-169849999D03*
X142654891Y-169849999D03*
X145054891Y-169849999D03*
X147454891Y-169849999D03*
X149854892Y-169849999D03*
X152254892Y-169849999D03*
X154654892Y-169849999D03*
X157054892Y-169849999D03*
X159454892Y-169849999D03*
X161854892Y-169849999D03*
X137854891Y-172249999D03*
X140254891Y-172249999D03*
X142654891Y-172249999D03*
X145054891Y-172249999D03*
X147454891Y-172249999D03*
X149854892Y-172249999D03*
X152254892Y-172249999D03*
X154654892Y-172249999D03*
X157054892Y-172249999D03*
X159454892Y-172249999D03*
X161854892Y-172249999D03*
X137854891Y-174649999D03*
X140254891Y-174649999D03*
X142654891Y-174649999D03*
X145054891Y-174649999D03*
X147454891Y-174649999D03*
X149854892Y-174649999D03*
X152254892Y-174649999D03*
X154654892Y-174649999D03*
X157054892Y-174649999D03*
X159454892Y-174649999D03*
X161854892Y-174649999D03*
%TD*%
D20*
%TO.C,H5*%
X34025000Y-175975000D03*
D21*
X34025000Y-175975000D03*
%TD*%
D16*
%TO.C,R157*%
X139970000Y-86805000D03*
D17*
X139970000Y-88705000D03*
%TD*%
D14*
%TO.C,J5*%
X121520000Y-97930000D03*
D15*
X118980000Y-97930000D03*
X121520000Y-100470000D03*
X118980000Y-100470000D03*
X121520000Y-103010000D03*
X118980000Y-103010000D03*
X121520000Y-105550000D03*
X118980000Y-105550000D03*
X121520000Y-108090000D03*
X118980000Y-108090000D03*
X121520000Y-110630000D03*
X118980000Y-110630000D03*
X121520000Y-113170000D03*
X118980000Y-113170000D03*
X121520000Y-115710000D03*
X118980000Y-115710000D03*
X121520000Y-118250000D03*
X118980000Y-118250000D03*
X121520000Y-120790000D03*
X118980000Y-120790000D03*
X121520000Y-123330000D03*
X118980000Y-123330000D03*
X121520000Y-125870000D03*
X118980000Y-125870000D03*
X121520000Y-128410000D03*
X118980000Y-128410000D03*
X121520000Y-130950000D03*
X118980000Y-130950000D03*
X121520000Y-133490000D03*
X118980000Y-133490000D03*
X121520000Y-136030000D03*
X118980000Y-136030000D03*
X121520000Y-138570000D03*
X118980000Y-138570000D03*
X121520000Y-141110000D03*
X118980000Y-141110000D03*
X121520000Y-143650000D03*
X118980000Y-143650000D03*
X121520000Y-146190000D03*
X118980000Y-146190000D03*
%TD*%
D18*
%TO.C,C88*%
X112323959Y-69000000D03*
D19*
X107323959Y-69000000D03*
%TD*%
D18*
%TO.C,C91*%
X95700000Y-54723959D03*
D19*
X95700000Y-49723959D03*
%TD*%
D18*
%TO.C,C89*%
X81650000Y-54723959D03*
D19*
X81650000Y-49723959D03*
%TD*%
D28*
%TO.C,J8*%
X150800000Y-55680000D03*
D15*
X153340000Y-55680000D03*
X150800000Y-58220000D03*
X153340000Y-58220000D03*
X150800000Y-60760000D03*
X153340000Y-60760000D03*
X150800000Y-63300000D03*
X153340000Y-63300000D03*
X150800000Y-65840000D03*
X153340000Y-65840000D03*
X150800000Y-68380000D03*
X153340000Y-68380000D03*
X150800000Y-70920000D03*
X153340000Y-70920000D03*
%TD*%
D16*
%TO.C,R159*%
X142790000Y-86900000D03*
D17*
X142790000Y-88800000D03*
%TD*%
D11*
%TO.C,H6*%
X115600000Y-147700000D03*
D10*
X115600000Y-147700000D03*
%TD*%
D11*
%TO.C,H1*%
X33900000Y-131000000D03*
D10*
X33900000Y-131000000D03*
%TD*%
D20*
%TO.C,H2*%
X34025000Y-34025000D03*
D21*
X34025000Y-34025000D03*
%TD*%
D14*
%TO.C,J9*%
X150800000Y-42980000D03*
D15*
X150800000Y-40440000D03*
X148260000Y-42980000D03*
X148260000Y-40440000D03*
X145720000Y-42980000D03*
X145720000Y-40440000D03*
X143180000Y-42980000D03*
X143180000Y-40440000D03*
X140640000Y-42980000D03*
X140640000Y-40440000D03*
X138100000Y-42980000D03*
X138100000Y-40440000D03*
X135560000Y-42980000D03*
X135560000Y-40440000D03*
X133020000Y-42980000D03*
X133020000Y-40440000D03*
X130480000Y-42980000D03*
X130480000Y-40440000D03*
X127940000Y-42980000D03*
X127940000Y-40440000D03*
X125400000Y-42980000D03*
X125400000Y-40440000D03*
X122860000Y-42980000D03*
X122860000Y-40440000D03*
X120320000Y-42980000D03*
X120320000Y-40440000D03*
X117780000Y-42980000D03*
X117780000Y-40440000D03*
X115240000Y-42980000D03*
X115240000Y-40440000D03*
%TD*%
D29*
%TO.C,R48*%
X133066667Y-91974000D03*
X133066667Y-92994000D03*
%TD*%
D30*
%TO.C,Q17*%
X38919944Y-124977275D03*
D31*
X41199944Y-131277275D03*
D30*
X43479944Y-124977275D03*
%TD*%
D32*
%TO.C,Q31*%
X48175000Y-64220000D03*
D33*
X41875000Y-66500000D03*
D32*
X48175000Y-68780000D03*
%TD*%
D30*
%TO.C,Q12*%
X74419944Y-124977275D03*
D31*
X76699944Y-131277275D03*
D30*
X78979944Y-124977275D03*
%TD*%
D34*
%TO.C,C45*%
X176146667Y-92004000D03*
X176146667Y-92964000D03*
%TD*%
D30*
%TO.C,Q27*%
X106320000Y-124633333D03*
D31*
X108600000Y-130933333D03*
D30*
X110880000Y-124633333D03*
%TD*%
D34*
%TO.C,C44*%
X134336667Y-111067000D03*
X134336667Y-112027000D03*
%TD*%
D35*
%TO.C,Q7*%
X75923444Y-121527275D03*
D36*
X73643444Y-115227275D03*
D35*
X71363444Y-121527275D03*
%TD*%
D34*
%TO.C,C42*%
X158400000Y-111067000D03*
X158400000Y-112027000D03*
%TD*%
D32*
%TO.C,Q36*%
X175400000Y-159390000D03*
D33*
X169100000Y-161670000D03*
D32*
X175400000Y-163950000D03*
%TD*%
D29*
%TO.C,R30*%
X159670000Y-111037000D03*
X159670000Y-112057000D03*
%TD*%
%TO.C,R27*%
X145670000Y-130100000D03*
X145670000Y-131120000D03*
%TD*%
D37*
%TO.C,D50*%
X34225000Y-78365000D03*
D38*
X43375000Y-75825000D03*
D37*
X34225000Y-73285000D03*
%TD*%
D30*
%TO.C,Q19*%
X86828333Y-124633333D03*
D31*
X89108333Y-130933333D03*
D30*
X91388333Y-124633333D03*
%TD*%
D39*
%TO.C,Q32*%
X57197500Y-68780000D03*
D40*
X63497500Y-66500000D03*
D39*
X57197500Y-64220000D03*
%TD*%
D29*
%TO.C,R58*%
X155860000Y-91974000D03*
X155860000Y-92994000D03*
%TD*%
D35*
%TO.C,Q1*%
X61723444Y-121527275D03*
D36*
X59443444Y-115227275D03*
D35*
X57163444Y-121527275D03*
%TD*%
%TO.C,Q15*%
X54623444Y-121527275D03*
D36*
X52343444Y-115227275D03*
D35*
X50063444Y-121527275D03*
%TD*%
D34*
%TO.C,C31*%
X176146667Y-130160000D03*
X176146667Y-131120000D03*
%TD*%
D30*
%TO.C,Q2*%
X49569944Y-136152275D03*
D31*
X51849944Y-142452275D03*
D30*
X54129944Y-136152275D03*
%TD*%
D29*
%TO.C,R32*%
X155860000Y-130100000D03*
X155860000Y-131120000D03*
%TD*%
%TO.C,R62*%
X129256667Y-111037000D03*
X129256667Y-112057000D03*
%TD*%
%TO.C,R25*%
X173606667Y-130100000D03*
X173606667Y-131120000D03*
%TD*%
%TO.C,R21*%
X146940000Y-130100000D03*
X146940000Y-131120000D03*
%TD*%
D34*
%TO.C,C35*%
X176146667Y-111067000D03*
X176146667Y-112027000D03*
%TD*%
D29*
%TO.C,R47*%
X146940000Y-91974000D03*
X146940000Y-92994000D03*
%TD*%
D30*
%TO.C,Q18*%
X46019944Y-124977275D03*
D31*
X48299944Y-131277275D03*
D30*
X50579944Y-124977275D03*
%TD*%
D34*
%TO.C,C39*%
X144400000Y-130160000D03*
X144400000Y-131120000D03*
%TD*%
D30*
%TO.C,Q4*%
X56669944Y-136152275D03*
D31*
X58949944Y-142452275D03*
D30*
X61229944Y-136152275D03*
%TD*%
D29*
%TO.C,R23*%
X174876667Y-111037000D03*
X174876667Y-112057000D03*
%TD*%
D37*
%TO.C,U45*%
X159450000Y-72640000D03*
X159450000Y-70100000D03*
D38*
X168600000Y-70100000D03*
D37*
X159450000Y-67560000D03*
%TD*%
D29*
%TO.C,R50*%
X131796667Y-111037000D03*
X131796667Y-112057000D03*
%TD*%
%TO.C,R53*%
X145670000Y-91974000D03*
X145670000Y-92994000D03*
%TD*%
D34*
%TO.C,C53*%
X144400000Y-92004000D03*
X144400000Y-92964000D03*
%TD*%
%TO.C,C33*%
X148210000Y-130160000D03*
X148210000Y-131120000D03*
%TD*%
D30*
%TO.C,Q16*%
X42469944Y-136152275D03*
D31*
X44749944Y-142452275D03*
D30*
X47029944Y-136152275D03*
%TD*%
D34*
%TO.C,C43*%
X148210000Y-111067000D03*
X148210000Y-112027000D03*
%TD*%
D29*
%TO.C,R59*%
X141860000Y-91974000D03*
X141860000Y-92994000D03*
%TD*%
%TO.C,R39*%
X143130000Y-130100000D03*
X143130000Y-131120000D03*
%TD*%
%TO.C,R65*%
X143130000Y-91974000D03*
X143130000Y-92994000D03*
%TD*%
%TO.C,R64*%
X157130000Y-91974000D03*
X157130000Y-92994000D03*
%TD*%
D30*
%TO.C,Q28*%
X105120000Y-136200000D03*
D31*
X107400000Y-142500000D03*
D30*
X109680000Y-136200000D03*
%TD*%
%TO.C,Q22*%
X88136667Y-113066667D03*
D31*
X90416667Y-119366667D03*
D30*
X92696667Y-113066667D03*
%TD*%
%TO.C,Q25*%
X98920000Y-101500000D03*
D31*
X101200000Y-107800000D03*
D30*
X103480000Y-101500000D03*
%TD*%
D29*
%TO.C,R29*%
X173606667Y-111037000D03*
X173606667Y-112057000D03*
%TD*%
%TO.C,R56*%
X127986667Y-111037000D03*
X127986667Y-112057000D03*
%TD*%
%TO.C,R24*%
X160940000Y-111037000D03*
X160940000Y-112057000D03*
%TD*%
D34*
%TO.C,C37*%
X172336667Y-130160000D03*
X172336667Y-131120000D03*
%TD*%
D29*
%TO.C,R38*%
X157130000Y-130100000D03*
X157130000Y-131120000D03*
%TD*%
D34*
%TO.C,C41*%
X172336667Y-111067000D03*
X172336667Y-112027000D03*
%TD*%
D29*
%TO.C,R61*%
X143130000Y-111037000D03*
X143130000Y-112057000D03*
%TD*%
D34*
%TO.C,C40*%
X130526667Y-130160000D03*
X130526667Y-131120000D03*
%TD*%
D30*
%TO.C,Q20*%
X85520000Y-136200000D03*
D31*
X87800000Y-142500000D03*
D30*
X90080000Y-136200000D03*
%TD*%
D29*
%TO.C,R66*%
X129256667Y-91974000D03*
X129256667Y-92994000D03*
%TD*%
D30*
%TO.C,Q10*%
X70869944Y-136152275D03*
D31*
X73149944Y-142452275D03*
D30*
X75429944Y-136152275D03*
%TD*%
D32*
%TO.C,Q34*%
X175400000Y-165792500D03*
D33*
X169100000Y-168072500D03*
D32*
X175400000Y-170352500D03*
%TD*%
D30*
%TO.C,Q21*%
X89445000Y-101500000D03*
D31*
X91725000Y-107800000D03*
D30*
X94005000Y-101500000D03*
%TD*%
%TO.C,Q29*%
X108720000Y-101500000D03*
D31*
X111000000Y-107800000D03*
D30*
X113280000Y-101500000D03*
%TD*%
D29*
%TO.C,R44*%
X133066667Y-111037000D03*
X133066667Y-112057000D03*
%TD*%
%TO.C,R37*%
X171066667Y-130100000D03*
X171066667Y-131120000D03*
%TD*%
%TO.C,R49*%
X145670000Y-111037000D03*
X145670000Y-112057000D03*
%TD*%
D34*
%TO.C,C34*%
X134336667Y-130160000D03*
X134336667Y-131120000D03*
%TD*%
D30*
%TO.C,Q30*%
X107520000Y-113066667D03*
D31*
X109800000Y-119366667D03*
D30*
X112080000Y-113066667D03*
%TD*%
D29*
%TO.C,R43*%
X146940000Y-111037000D03*
X146940000Y-112057000D03*
%TD*%
%TO.C,R45*%
X174876667Y-91974000D03*
X174876667Y-92994000D03*
%TD*%
%TO.C,R34*%
X127986667Y-130100000D03*
X127986667Y-131120000D03*
%TD*%
D30*
%TO.C,Q26*%
X97720000Y-113066667D03*
D31*
X100000000Y-119366667D03*
D30*
X102280000Y-113066667D03*
%TD*%
D29*
%TO.C,R51*%
X173606667Y-91974000D03*
X173606667Y-92994000D03*
%TD*%
D34*
%TO.C,C47*%
X148210000Y-92004000D03*
X148210000Y-92964000D03*
%TD*%
D35*
%TO.C,Q9*%
X83023444Y-121527275D03*
D36*
X80743444Y-115227275D03*
D35*
X78463444Y-121527275D03*
%TD*%
D29*
%TO.C,R40*%
X129256667Y-130100000D03*
X129256667Y-131120000D03*
%TD*%
D30*
%TO.C,Q23*%
X96520000Y-124633333D03*
D31*
X98800000Y-130933333D03*
D30*
X101080000Y-124633333D03*
%TD*%
D34*
%TO.C,C38*%
X158400000Y-130160000D03*
X158400000Y-131120000D03*
%TD*%
D29*
%TO.C,R63*%
X171066667Y-91974000D03*
X171066667Y-92994000D03*
%TD*%
D34*
%TO.C,C46*%
X162210000Y-92004000D03*
X162210000Y-92964000D03*
%TD*%
D29*
%TO.C,R31*%
X169796667Y-130100000D03*
X169796667Y-131120000D03*
%TD*%
D37*
%TO.C,U44*%
X159450000Y-59290000D03*
X159450000Y-56750000D03*
D38*
X168600000Y-56750000D03*
D37*
X159450000Y-54210000D03*
%TD*%
D34*
%TO.C,C48*%
X134336667Y-92004000D03*
X134336667Y-92964000D03*
%TD*%
D29*
%TO.C,R57*%
X169796667Y-91974000D03*
X169796667Y-92994000D03*
%TD*%
D34*
%TO.C,C52*%
X158400000Y-92004000D03*
X158400000Y-92964000D03*
%TD*%
D30*
%TO.C,Q11*%
X67319944Y-124977275D03*
D31*
X69599944Y-131277275D03*
D30*
X71879944Y-124977275D03*
%TD*%
D29*
%TO.C,R33*%
X141860000Y-130100000D03*
X141860000Y-131120000D03*
%TD*%
D35*
%TO.C,Q3*%
X68823444Y-121527275D03*
D36*
X66543444Y-115227275D03*
D35*
X64263444Y-121527275D03*
%TD*%
D29*
%TO.C,R41*%
X171066667Y-111037000D03*
X171066667Y-112057000D03*
%TD*%
%TO.C,R42*%
X157130000Y-111037000D03*
X157130000Y-112057000D03*
%TD*%
%TO.C,R20*%
X160940000Y-130100000D03*
X160940000Y-131120000D03*
%TD*%
D30*
%TO.C,Q14*%
X35369944Y-136152275D03*
D31*
X37649944Y-142452275D03*
D30*
X39929944Y-136152275D03*
%TD*%
%TO.C,Q24*%
X95320000Y-136200000D03*
D31*
X97600000Y-142500000D03*
D30*
X99880000Y-136200000D03*
%TD*%
D41*
%TO.C,D49*%
X71147500Y-73285000D03*
D42*
X61997500Y-75825000D03*
D41*
X71147500Y-78365000D03*
%TD*%
D34*
%TO.C,C36*%
X162210000Y-111067000D03*
X162210000Y-112027000D03*
%TD*%
D35*
%TO.C,Q13*%
X47523444Y-121527275D03*
D36*
X45243444Y-115227275D03*
D35*
X42963444Y-121527275D03*
%TD*%
D29*
%TO.C,R52*%
X159670000Y-91974000D03*
X159670000Y-92994000D03*
%TD*%
%TO.C,R55*%
X141860000Y-111037000D03*
X141860000Y-112057000D03*
%TD*%
%TO.C,R60*%
X127986667Y-91974000D03*
X127986667Y-92994000D03*
%TD*%
%TO.C,R36*%
X155860000Y-111037000D03*
X155860000Y-112057000D03*
%TD*%
%TO.C,R35*%
X169796667Y-111037000D03*
X169796667Y-112057000D03*
%TD*%
%TO.C,R28*%
X131796667Y-130100000D03*
X131796667Y-131120000D03*
%TD*%
D34*
%TO.C,C32*%
X162210000Y-130160000D03*
X162210000Y-131120000D03*
%TD*%
D30*
%TO.C,Q6*%
X60219944Y-124977275D03*
D31*
X62499944Y-131277275D03*
D30*
X64779944Y-124977275D03*
%TD*%
D34*
%TO.C,C49*%
X144400000Y-111067000D03*
X144400000Y-112027000D03*
%TD*%
%TO.C,C54*%
X130526667Y-92004000D03*
X130526667Y-92964000D03*
%TD*%
%TO.C,C50*%
X130526667Y-111067000D03*
X130526667Y-112027000D03*
%TD*%
D30*
%TO.C,Q8*%
X63769944Y-136152275D03*
D31*
X66049944Y-142452275D03*
D30*
X68329944Y-136152275D03*
%TD*%
D29*
%TO.C,R19*%
X174876667Y-130100000D03*
X174876667Y-131120000D03*
%TD*%
D30*
%TO.C,Q5*%
X53119944Y-124977275D03*
D31*
X55399944Y-131277275D03*
D30*
X57679944Y-124977275D03*
%TD*%
D29*
%TO.C,R54*%
X131796667Y-91974000D03*
X131796667Y-92994000D03*
%TD*%
D34*
%TO.C,C51*%
X172336667Y-92004000D03*
X172336667Y-92964000D03*
%TD*%
D29*
%TO.C,R26*%
X159670000Y-130100000D03*
X159670000Y-131120000D03*
%TD*%
%TO.C,R46*%
X160940000Y-91974000D03*
X160940000Y-92994000D03*
%TD*%
%TO.C,R22*%
X133066667Y-130100000D03*
X133066667Y-131120000D03*
%TD*%
M02*
