M48
; DRILL file {KiCad 9.0.1} date 2026-03-08T18:53:44+0100
; FORMAT={-:-/ absolute / metric / decimal}
; #@! TF.CreationDate,2026-03-08T18:53:44+01:00
; #@! TF.GenerationSoftware,Kicad,Pcbnew,9.0.1
; #@! TF.FileFunction,Plated,1,6,PTH
FMAT,2
METRIC
; #@! TA.AperFunction,Plated,PTH,ViaDrill
T1C0.300
; #@! TA.AperFunction,Plated,PTH,ComponentDrill
T2C0.700
; #@! TA.AperFunction,Plated,PTH,ComponentDrill
T3C0.900
; #@! TA.AperFunction,Plated,PTH,ComponentDrill
T4C0.940
; #@! TA.AperFunction,Plated,PTH,ComponentDrill
T5C1.000
; #@! TA.AperFunction,Plated,PTH,ComponentDrill
T6C1.200
; #@! TA.AperFunction,Plated,PTH,ComponentDrill
T7C1.245
; #@! TA.AperFunction,Plated,PTH,ComponentDrill
T8C1.448
; #@! TA.AperFunction,Plated,PTH,ComponentDrill
T9C2.200
; #@! TA.AperFunction,Plated,PTH,ComponentDrill
T10C3.100
; #@! TA.AperFunction,Plated,PTH,ComponentDrill
T11C3.200
%
G90
G05
T1
X34.225Y-74.525
X34.225Y-75.175
X34.225Y-75.825
X34.225Y-76.475
X34.225Y-77.125
X36.5Y-93.901
X36.57Y-91.926
X36.587Y-105.996
X36.9Y-100.5
X37.1Y-136.152
X37.2Y-102.302
X37.5Y-99.563
X37.512Y-148.415
X37.65Y-142.452
X38.0Y-101.6
X38.727Y-106.807
X38.782Y-148.427
X38.92Y-124.977
X39.0Y-127.027
X39.75Y-113.027
X39.75Y-113.677
X39.75Y-114.327
X39.75Y-114.977
X40.0Y-102.527
X40.05Y-116.577
X40.05Y-117.227
X40.05Y-117.877
X40.4Y-113.027
X40.4Y-113.677
X40.4Y-114.327
X40.4Y-114.977
X40.624Y-88.704
X40.7Y-116.577
X40.7Y-117.227
X40.7Y-117.877
X41.05Y-113.677
X41.05Y-114.327
X41.05Y-114.977
X41.2Y-131.277
X41.277Y-96.787
X41.277Y-106.807
X41.297Y-91.977
X41.3Y-101.876
X41.35Y-116.577
X41.35Y-117.227
X41.35Y-117.877
X41.7Y-114.327
X41.7Y-114.977
X42.6Y-92.627
X42.725Y-75.175
X42.725Y-75.825
X42.725Y-76.475
X42.963Y-121.527
X43.375Y-75.175
X43.375Y-75.825
X43.375Y-76.475
X44.025Y-75.175
X44.025Y-75.825
X44.025Y-76.475
X44.175Y-136.152
X44.232Y-106.807
X44.612Y-148.415
X44.75Y-142.452
X45.502Y-102.227
X45.882Y-149.227
X46.0Y-63.652
X46.02Y-124.977
X46.049Y-92.627
X46.2Y-127.027
X46.352Y-64.922
X46.772Y-106.807
X47.0Y-138.2
X47.523Y-121.527
X48.2Y-85.8
X48.3Y-131.277
X49.627Y-106.807
X50.063Y-121.527
X50.9Y-102.527
X51.25Y-136.152
X51.85Y-142.452
X52.177Y-96.8
X52.177Y-106.807
X52.2Y-91.977
X52.686Y-70.1
X52.686Y-70.7
X52.686Y-71.3
X52.686Y-71.9
X52.686Y-72.5
X52.686Y-79.2
X52.686Y-79.8
X52.686Y-80.4
X52.686Y-81.0
X52.686Y-81.6
X52.747Y-67.025
X52.9Y-93.901
X52.982Y-148.427
X53.12Y-124.977
X53.3Y-127.027
X53.6Y-40.5
X53.6Y-41.1
X53.6Y-41.7
X53.7Y-149.227
X53.936Y-99.563
X54.2Y-138.2
X54.623Y-121.527
X55.027Y-106.807
X55.4Y-131.277
X56.3Y-102.527
X57.024Y-88.701
X57.163Y-121.527
X57.577Y-96.8
X57.577Y-106.807
X57.6Y-101.876
X57.7Y-91.977
X58.325Y-136.152
X58.95Y-142.452
X58.951Y-92.627
X59.517Y-148.994
X60.082Y-148.427
X60.22Y-124.977
X60.3Y-127.027
X60.632Y-106.807
X61.2Y-138.2
X61.347Y-75.175
X61.347Y-75.825
X61.347Y-76.475
X61.723Y-121.527
X61.902Y-102.227
X61.997Y-75.175
X61.997Y-75.825
X61.997Y-76.475
X62.4Y-92.627
X62.5Y-131.277
X62.647Y-75.175
X62.647Y-75.825
X62.647Y-76.475
X63.172Y-106.807
X64.1Y-86.8
X64.263Y-121.527
X65.4Y-136.152
X65.912Y-148.415
X66.027Y-106.807
X66.05Y-142.452
X67.182Y-148.427
X67.3Y-102.527
X67.32Y-124.977
X67.4Y-127.027
X67.95Y-87.8
X68.3Y-138.2
X68.577Y-96.8
X68.577Y-106.807
X68.6Y-91.977
X68.823Y-121.527
X69.276Y-93.901
X69.6Y-131.277
X70.4Y-99.527
X71.147Y-74.525
X71.147Y-75.175
X71.147Y-75.825
X71.147Y-76.475
X71.147Y-77.125
X71.363Y-121.527
X71.527Y-106.807
X72.475Y-136.152
X72.8Y-102.527
X73.012Y-148.715
X73.15Y-142.452
X73.475Y-88.752
X74.077Y-96.8
X74.077Y-106.807
X74.1Y-91.977
X74.1Y-101.876
X74.282Y-148.427
X74.42Y-124.977
X74.5Y-127.027
X75.3Y-138.1
X75.923Y-121.527
X76.0Y-91.9
X76.7Y-131.277
X77.0Y-87.155
X77.032Y-106.807
X78.302Y-102.227
X78.463Y-121.527
X78.7Y-92.727
X79.572Y-106.807
X81.8Y-121.4
X83.749Y-125.4
X83.749Y-126.0
X83.749Y-126.6
X85.487Y-73.3
X85.52Y-99.0
X85.52Y-136.2
X86.79Y-94.3
X86.828Y-124.633
X87.2Y-63.5
X87.2Y-64.1
X87.8Y-140.373
X88.06Y-99.0
X88.137Y-113.067
X89.2Y-128.761
X89.445Y-101.5
X89.7Y-75.388
X90.6Y-117.239
X90.955Y-99.0
X91.8Y-105.627
X92.225Y-94.3
X93.1Y-74.2
X93.1Y-74.8
X93.495Y-99.0
X95.32Y-136.2
X96.32Y-147.632
X96.32Y-148.658
X96.326Y-146.606
X96.39Y-99.0
X96.52Y-124.633
X96.92Y-146.606
X96.92Y-147.632
X96.92Y-148.658
X97.0Y-143.2
X97.52Y-146.606
X97.52Y-147.632
X97.52Y-148.658
X97.6Y-140.327
X97.6Y-143.2
X97.66Y-94.3
X97.72Y-113.067
X98.2Y-143.2
X98.8Y-128.761
X98.92Y-101.5
X98.93Y-99.0
X100.0Y-117.239
X101.2Y-105.627
X101.825Y-99.0
X102.4Y-42.39
X103.0Y-61.6
X103.095Y-94.3
X103.828Y-55.18
X104.365Y-99.0
X104.8Y-55.2
X105.12Y-136.2
X105.7Y-39.85
X105.7Y-43.7
X106.0Y-55.18
X106.12Y-146.4
X106.12Y-147.426
X106.32Y-124.633
X106.72Y-146.4
X106.72Y-147.426
X106.8Y-62.7
X106.8Y-142.5
X107.0Y-56.1
X107.02Y-51.48
X107.26Y-99.0
X107.32Y-146.4
X107.32Y-147.426
X107.4Y-142.5
X107.52Y-113.067
X107.6Y-140.327
X108.0Y-142.5
X108.172Y-55.18
X108.53Y-94.3
X108.6Y-128.761
X108.72Y-101.5
X109.192Y-51.48
X109.8Y-99.0
X110.0Y-117.239
X110.343Y-55.18
X110.5Y-39.85
X110.5Y-43.66
X110.7Y-74.8
X110.7Y-75.4
X111.0Y-105.627
X111.363Y-52.58
X112.695Y-99.0
X113.965Y-94.3
X114.8Y-75.5
X114.8Y-76.3
X114.8Y-77.15
X114.8Y-77.95
X114.8Y-78.75
X114.8Y-79.55
X115.235Y-99.0
X117.4Y-73.8
X117.7Y-69.4
X118.0Y-56.252
X118.0Y-57.052
X118.0Y-57.852
X118.0Y-58.652
X118.0Y-59.452
X118.0Y-61.0
X119.398Y-69.412
X119.399Y-67.3
X120.2Y-64.8
X121.5Y-93.5
X121.7Y-68.8
X121.8Y-59.8
X122.1Y-61.5
X122.1Y-93.5
X124.0Y-98.2
X124.0Y-98.8
X125.7Y-68.3
X126.1Y-52.9
X126.1Y-66.7
X126.6Y-60.1
X127.335Y-60.415
X127.987Y-91.4
X127.987Y-110.6
X127.987Y-129.6
X128.049Y-60.777
X128.1Y-58.0
X128.8Y-61.2
X129.1Y-57.5
X129.1Y-74.3
X129.257Y-91.4
X129.257Y-110.6
X129.257Y-129.6
X129.6Y-61.6
X130.1Y-69.3
X130.3Y-76.5
X130.4Y-62.1
X130.5Y-137.03
X131.1Y-73.3
X131.6Y-72.7
X131.7Y-67.6
X133.0Y-66.9
X133.2Y-57.5
X133.7Y-129.5
X133.702Y-92.964
X133.702Y-112.027
X133.702Y-131.12
X134.2Y-139.7
X134.337Y-95.324
X134.337Y-95.974
X134.337Y-96.624
X134.337Y-114.387
X134.337Y-115.037
X134.337Y-115.687
X134.337Y-132.7
X134.337Y-133.35
X134.337Y-134.0
X134.4Y-58.1
X135.1Y-66.0
X135.4Y-112.027
X135.9Y-58.8
X136.7Y-59.5
X136.9Y-76.1
X137.1Y-57.2
X137.3Y-60.3
X137.6Y-69.8
X137.9Y-61.3
X138.2Y-68.7
X138.4Y-72.8
X138.5Y-62.8
X138.56Y-84.105
X139.86Y-77.7
X139.9Y-154.2
X140.59Y-133.45
X140.59Y-134.1
X140.59Y-134.75
X140.61Y-81.105
X141.3Y-77.7
X141.38Y-84.105
X141.7Y-70.3
X141.86Y-91.4
X141.86Y-110.6
X141.86Y-129.6
X142.0Y-82.7
X142.5Y-57.3
X142.7Y-77.7
X143.13Y-91.4
X143.13Y-110.6
X143.13Y-129.6
X143.3Y-60.9
X143.3Y-61.7
X143.427Y-81.105
X144.1Y-77.7
X144.2Y-84.105
X144.85Y-82.7
X145.5Y-77.7
X145.9Y-59.3
X146.243Y-81.105
X146.91Y-77.7
X147.02Y-84.105
X147.575Y-92.964
X147.575Y-112.027
X147.575Y-131.12
X147.6Y-82.7
X148.21Y-95.324
X148.21Y-95.974
X148.21Y-96.624
X148.21Y-114.387
X148.21Y-115.037
X148.21Y-115.687
X148.21Y-133.45
X148.21Y-134.1
X148.21Y-134.75
X148.32Y-77.7
X149.06Y-81.105
X149.2Y-112.027
X149.2Y-132.0
X149.73Y-77.7
X149.84Y-84.105
X150.4Y-82.7
X151.14Y-77.7
X151.14Y-80.1
X151.156Y-157.449
X151.7Y-129.331
X153.2Y-158.6
X153.7Y-159.5
X154.59Y-133.45
X154.59Y-134.1
X154.59Y-134.75
X154.6Y-131.3
X155.86Y-91.4
X155.86Y-110.6
X157.13Y-91.4
X157.13Y-110.6
X157.13Y-129.6
X157.602Y-158.398
X158.15Y-54.21
X158.15Y-67.56
X158.8Y-54.21
X158.8Y-67.56
X159.4Y-160.7
X159.45Y-54.21
X159.45Y-67.56
X160.1Y-54.21
X160.1Y-67.56
X160.305Y-154.054
X160.75Y-54.21
X160.75Y-67.56
X161.575Y-92.964
X161.575Y-112.027
X161.575Y-131.12
X162.21Y-95.324
X162.21Y-95.974
X162.21Y-96.624
X162.21Y-114.387
X162.21Y-115.037
X162.21Y-115.687
X162.21Y-133.45
X162.21Y-134.1
X162.21Y-134.75
X163.1Y-154.3
X163.2Y-112.027
X163.2Y-131.12
X163.6Y-155.1
X165.701Y-129.267
X167.3Y-55.45
X167.3Y-56.75
X167.3Y-58.05
X167.3Y-68.8
X167.3Y-70.1
X167.3Y-71.4
X167.95Y-56.1
X167.95Y-57.4
X167.95Y-69.45
X167.95Y-70.75
X168.0Y-153.1
X168.0Y-154.0
X168.527Y-133.45
X168.527Y-134.1
X168.527Y-134.75
X168.6Y-55.45
X168.6Y-56.75
X168.6Y-58.05
X168.6Y-68.8
X168.6Y-70.1
X168.6Y-71.4
X168.775Y-167.748
X168.775Y-168.397
X168.8Y-130.1
X169.25Y-56.1
X169.25Y-57.4
X169.25Y-69.45
X169.25Y-70.75
X169.425Y-167.748
X169.425Y-168.397
X169.797Y-91.4
X169.797Y-110.6
X169.9Y-55.45
X169.9Y-56.75
X169.9Y-58.05
X169.9Y-68.8
X169.9Y-70.1
X169.9Y-71.4
X170.1Y-151.5
X170.6Y-129.5
X170.792Y-153.5
X171.067Y-91.4
X171.067Y-110.6
X175.4Y-165.792
X175.512Y-92.964
X175.512Y-112.027
X175.7Y-131.12
X176.147Y-95.324
X176.147Y-95.974
X176.147Y-96.624
X176.147Y-114.387
X176.147Y-115.037
X176.147Y-115.687
X176.147Y-132.5
X176.147Y-133.15
X176.147Y-133.8
X177.2Y-112.027
X177.2Y-132.5
T2
X138.56Y-87.8
X138.56Y-89.7
X139.97Y-86.805
X139.97Y-88.705
X141.38Y-87.8
X141.38Y-89.7
X142.79Y-86.9
X142.79Y-88.8
X144.2Y-87.7
X144.2Y-89.6
X145.61Y-86.705
X145.61Y-88.605
X147.02Y-87.605
X147.02Y-89.505
X148.43Y-86.6
X148.43Y-88.5
X149.84Y-87.505
X149.84Y-89.405
T3
X78.625Y-43.025
X79.995Y-40.485
X81.365Y-43.025
X82.735Y-40.485
X84.105Y-43.025
X85.475Y-40.485
X86.845Y-43.025
X88.215Y-40.485
X89.585Y-43.025
T4
X78.255Y-162.65
X78.255Y-165.05
X78.255Y-167.45
X78.255Y-169.85
X78.255Y-172.25
X78.255Y-174.65
X80.655Y-162.65
X80.655Y-165.05
X80.655Y-167.45
X80.655Y-169.85
X80.655Y-172.25
X80.655Y-174.65
X83.055Y-162.65
X83.055Y-165.05
X83.055Y-167.45
X83.055Y-169.85
X83.055Y-172.25
X83.055Y-174.65
X85.455Y-162.65
X85.455Y-165.05
X85.455Y-167.45
X85.455Y-169.85
X85.455Y-172.25
X85.455Y-174.65
X87.855Y-162.65
X87.855Y-165.05
X87.855Y-167.45
X87.855Y-169.85
X87.855Y-172.25
X87.855Y-174.65
X90.255Y-162.65
X90.255Y-165.05
X90.255Y-167.45
X90.255Y-169.85
X90.255Y-172.25
X90.255Y-174.65
X92.655Y-162.65
X92.655Y-165.05
X92.655Y-167.45
X92.655Y-169.85
X92.655Y-172.25
X92.655Y-174.65
X97.055Y-162.65
X97.055Y-165.05
X97.055Y-167.45
X97.055Y-169.85
X97.055Y-172.25
X97.055Y-174.65
X99.455Y-162.65
X99.455Y-165.05
X99.455Y-167.45
X99.455Y-169.85
X99.455Y-172.25
X99.455Y-174.65
X101.855Y-162.65
X101.855Y-165.05
X101.855Y-167.45
X101.855Y-169.85
X101.855Y-172.25
X101.855Y-174.65
X104.255Y-162.65
X104.255Y-165.05
X104.255Y-167.45
X104.255Y-169.85
X104.255Y-172.25
X104.255Y-174.65
X106.655Y-162.65
X106.655Y-165.05
X106.655Y-167.45
X106.655Y-169.85
X106.655Y-172.25
X106.655Y-174.65
X109.055Y-162.65
X109.055Y-165.05
X109.055Y-167.45
X109.055Y-169.85
X109.055Y-172.25
X109.055Y-174.65
X137.855Y-162.65
X137.855Y-165.05
X137.855Y-167.45
X137.855Y-169.85
X137.855Y-172.25
X137.855Y-174.65
X140.255Y-162.65
X140.255Y-165.05
X140.255Y-167.45
X140.255Y-169.85
X140.255Y-172.25
X140.255Y-174.65
X142.655Y-162.65
X142.655Y-165.05
X142.655Y-167.45
X142.655Y-169.85
X142.655Y-172.25
X142.655Y-174.65
X145.055Y-162.65
X145.055Y-165.05
X145.055Y-167.45
X145.055Y-169.85
X145.055Y-172.25
X145.055Y-174.65
X147.455Y-162.65
X147.455Y-165.05
X147.455Y-167.45
X147.455Y-169.85
X147.455Y-172.25
X147.455Y-174.65
X149.855Y-162.65
X149.855Y-165.05
X149.855Y-167.45
X149.855Y-169.85
X149.855Y-172.25
X149.855Y-174.65
X152.255Y-162.65
X152.255Y-165.05
X152.255Y-167.45
X152.255Y-169.85
X152.255Y-172.25
X152.255Y-174.65
X154.655Y-162.65
X154.655Y-165.05
X154.655Y-167.45
X154.655Y-169.85
X154.655Y-172.25
X154.655Y-174.65
X157.055Y-162.65
X157.055Y-165.05
X157.055Y-167.45
X157.055Y-169.85
X157.055Y-172.25
X157.055Y-174.65
X159.455Y-162.65
X159.455Y-165.05
X159.455Y-167.45
X159.455Y-169.85
X159.455Y-172.25
X159.455Y-174.65
X161.855Y-162.65
X161.855Y-165.05
X161.855Y-167.45
X161.855Y-169.85
X161.855Y-172.25
X161.855Y-174.65
T5
X80.84Y-151.27
X80.84Y-153.81
X80.84Y-156.35
X80.84Y-158.89
X83.38Y-151.27
X83.38Y-153.81
X83.38Y-156.35
X83.38Y-158.89
X85.92Y-151.27
X85.92Y-153.81
X85.92Y-156.35
X85.92Y-158.89
X88.46Y-151.27
X88.46Y-153.81
X88.46Y-156.35
X88.46Y-158.89
X91.0Y-151.27
X91.0Y-153.81
X91.0Y-156.35
X91.0Y-158.89
X93.54Y-151.27
X93.54Y-153.81
X93.54Y-156.35
X93.54Y-158.89
X96.08Y-151.27
X96.08Y-153.81
X96.08Y-156.35
X96.08Y-158.89
X98.62Y-151.27
X98.62Y-153.81
X98.62Y-156.35
X98.62Y-158.89
X101.16Y-151.27
X101.16Y-153.81
X101.16Y-156.35
X101.16Y-158.89
X103.7Y-151.27
X103.7Y-153.81
X103.7Y-156.35
X103.7Y-158.89
X108.78Y-151.27
X108.78Y-153.81
X108.78Y-156.35
X108.78Y-158.89
X111.32Y-151.27
X111.32Y-153.81
X111.32Y-156.35
X111.32Y-158.89
X113.86Y-151.27
X113.86Y-153.81
X113.86Y-156.35
X113.86Y-158.89
X115.24Y-40.44
X115.24Y-42.98
X116.4Y-151.27
X116.4Y-153.81
X116.4Y-156.35
X116.4Y-158.89
X117.78Y-40.44
X117.78Y-42.98
X118.94Y-151.27
X118.94Y-153.81
X118.94Y-156.35
X118.94Y-158.89
X118.98Y-97.93
X118.98Y-100.47
X118.98Y-103.01
X118.98Y-105.55
X118.98Y-108.09
X118.98Y-110.63
X118.98Y-113.17
X118.98Y-115.71
X118.98Y-118.25
X118.98Y-120.79
X118.98Y-123.33
X118.98Y-125.87
X118.98Y-128.41
X118.98Y-130.95
X118.98Y-133.49
X118.98Y-136.03
X118.98Y-138.57
X118.98Y-141.11
X118.98Y-143.65
X118.98Y-146.19
X120.32Y-40.44
X120.32Y-42.98
X121.48Y-151.27
X121.48Y-153.81
X121.48Y-156.35
X121.48Y-158.89
X121.52Y-97.93
X121.52Y-100.47
X121.52Y-103.01
X121.52Y-105.55
X121.52Y-108.09
X121.52Y-110.63
X121.52Y-113.17
X121.52Y-115.71
X121.52Y-118.25
X121.52Y-120.79
X121.52Y-123.33
X121.52Y-125.87
X121.52Y-128.41
X121.52Y-130.95
X121.52Y-133.49
X121.52Y-136.03
X121.52Y-138.57
X121.52Y-141.11
X121.52Y-143.65
X121.52Y-146.19
X122.86Y-40.44
X122.86Y-42.98
X124.02Y-151.27
X124.02Y-153.81
X124.02Y-156.35
X124.02Y-158.89
X125.4Y-40.44
X125.4Y-42.98
X126.56Y-151.27
X126.56Y-153.81
X126.56Y-156.35
X126.56Y-158.89
X127.94Y-40.44
X127.94Y-42.98
X129.1Y-151.27
X129.1Y-153.81
X129.1Y-156.35
X129.1Y-158.89
X130.48Y-40.44
X130.48Y-42.98
X131.64Y-151.27
X131.64Y-153.81
X131.64Y-156.35
X131.64Y-158.89
X133.02Y-40.44
X133.02Y-42.98
X135.56Y-40.44
X135.56Y-42.98
X138.1Y-40.44
X138.1Y-42.98
X140.64Y-40.44
X140.64Y-42.98
X143.18Y-40.44
X143.18Y-42.98
X145.72Y-40.44
X145.72Y-42.98
X148.26Y-40.44
X148.26Y-42.98
X150.8Y-40.44
X150.8Y-42.98
X150.8Y-55.68
X150.8Y-58.22
X150.8Y-60.76
X150.8Y-63.3
X150.8Y-65.84
X150.8Y-68.38
X150.8Y-70.92
X153.34Y-55.68
X153.34Y-58.22
X153.34Y-60.76
X153.34Y-63.3
X153.34Y-65.84
X153.34Y-68.38
X153.34Y-70.92
T6
X39.5Y-49.8
X39.5Y-54.8
X46.525Y-38.476
X46.525Y-43.476
X53.55Y-49.8
X53.55Y-54.8
X60.575Y-38.6
X60.575Y-43.6
X67.6Y-49.8
X67.6Y-54.8
X80.4Y-64.8
X80.4Y-69.8
X81.65Y-49.724
X81.65Y-54.724
X95.7Y-49.724
X95.7Y-54.724
X95.7Y-64.8
X95.7Y-69.8
X99.124Y-79.2
X104.124Y-79.2
X107.324Y-69.0
X112.324Y-69.0
T7
X49.605Y-165.5
X49.605Y-168.5
X49.605Y-171.5
X49.605Y-174.5
X52.605Y-165.5
X52.605Y-168.5
X52.605Y-171.5
X52.605Y-174.5
X55.605Y-165.5
X55.605Y-168.5
X55.605Y-171.5
X55.605Y-174.5
X58.605Y-165.5
X58.605Y-168.5
X58.605Y-171.5
X58.605Y-174.5
X61.605Y-165.5
X61.605Y-168.5
X61.605Y-171.5
X61.605Y-174.5
X64.605Y-165.5
X64.605Y-168.5
X64.605Y-171.5
X64.605Y-174.5
X67.605Y-165.5
X67.605Y-168.5
X67.605Y-171.5
X67.605Y-174.5
X70.605Y-165.5
X70.605Y-168.5
X70.605Y-171.5
X70.605Y-174.5
X73.605Y-165.5
X73.605Y-168.5
X73.605Y-171.5
X73.605Y-174.5
T8
X125.655Y-163.3
X125.655Y-168.3
X125.655Y-173.3
X130.655Y-163.3
X130.655Y-168.3
X130.655Y-173.3
T9
X33.9Y-131.0
X115.6Y-147.7
X128.0Y-88.2
X141.4Y-158.1
X155.86Y-88.2
X155.9Y-41.69
X169.797Y-88.2
T10
X71.61Y-41.755
X96.6Y-41.755
T11
X34.025Y-34.025
X34.025Y-175.975
X175.975Y-34.025
X175.975Y-175.975
M30
