%TF.GenerationSoftware,KiCad,Pcbnew,9.0.1*%
%TF.CreationDate,2026-03-08T18:53:39+01:00*%
%TF.ProjectId,RT_STACK,52545f53-5441-4434-9b2e-6b696361645f,rev?*%
%TF.SameCoordinates,Original*%
%TF.FileFunction,Paste,Top*%
%TF.FilePolarity,Positive*%
%FSLAX46Y46*%
G04 Gerber Fmt 4.6, Leading zero omitted, Abs format (unit mm)*
G04 Created by KiCad (PCBNEW 9.0.1) date 2026-03-08 18:53:39*
%MOMM*%
%LPD*%
G01*
G04 APERTURE LIST*
G04 Aperture macros list*
%AMRoundRect*
0 Rectangle with rounded corners*
0 $1 Rounding radius*
0 $2 $3 $4 $5 $6 $7 $8 $9 X,Y pos of 4 corners*
0 Add a 4 corners polygon primitive as box body*
4,1,4,$2,$3,$4,$5,$6,$7,$8,$9,$2,$3,0*
0 Add four circle primitives for the rounded corners*
1,1,$1+$1,$2,$3*
1,1,$1+$1,$4,$5*
1,1,$1+$1,$6,$7*
1,1,$1+$1,$8,$9*
0 Add four rect primitives between the rounded corners*
20,1,$1+$1,$2,$3,$4,$5,0*
20,1,$1+$1,$4,$5,$6,$7,0*
20,1,$1+$1,$6,$7,$8,$9,0*
20,1,$1+$1,$8,$9,$2,$3,0*%
G04 Aperture macros list end*
%ADD10RoundRect,0.100000X0.100000X-0.225000X0.100000X0.225000X-0.100000X0.225000X-0.100000X-0.225000X0*%
%ADD11RoundRect,0.135000X0.185000X-0.135000X0.185000X0.135000X-0.185000X0.135000X-0.185000X-0.135000X0*%
%ADD12RoundRect,0.140000X0.170000X-0.140000X0.170000X0.140000X-0.170000X0.140000X-0.170000X-0.140000X0*%
%ADD13RoundRect,0.140000X-0.170000X0.140000X-0.170000X-0.140000X0.170000X-0.140000X0.170000X0.140000X0*%
%ADD14RoundRect,0.135000X-0.185000X0.135000X-0.185000X-0.135000X0.185000X-0.135000X0.185000X0.135000X0*%
%ADD15RoundRect,0.100000X0.100000X-0.275000X0.100000X0.275000X-0.100000X0.275000X-0.100000X-0.275000X0*%
%ADD16RoundRect,0.187500X0.212500X-0.187500X0.212500X0.187500X-0.212500X0.187500X-0.212500X-0.187500X0*%
%ADD17RoundRect,0.250000X-0.900000X1.000000X-0.900000X-1.000000X0.900000X-1.000000X0.900000X1.000000X0*%
%ADD18RoundRect,0.100000X-0.100000X0.225000X-0.100000X-0.225000X0.100000X-0.225000X0.100000X0.225000X0*%
%ADD19RoundRect,0.135000X0.135000X0.185000X-0.135000X0.185000X-0.135000X-0.185000X0.135000X-0.185000X0*%
%ADD20R,3.825000X12.320000*%
%ADD21RoundRect,0.150000X-0.825000X-0.150000X0.825000X-0.150000X0.825000X0.150000X-0.825000X0.150000X0*%
%ADD22RoundRect,0.135000X-0.135000X-0.185000X0.135000X-0.185000X0.135000X0.185000X-0.135000X0.185000X0*%
%ADD23RoundRect,0.250000X0.900000X-1.000000X0.900000X1.000000X-0.900000X1.000000X-0.900000X-1.000000X0*%
%ADD24RoundRect,0.147500X-0.147500X-0.172500X0.147500X-0.172500X0.147500X0.172500X-0.147500X0.172500X0*%
%ADD25RoundRect,0.150000X-0.150000X0.675000X-0.150000X-0.675000X0.150000X-0.675000X0.150000X0.675000X0*%
%ADD26RoundRect,0.150000X-0.150000X0.825000X-0.150000X-0.825000X0.150000X-0.825000X0.150000X0.825000X0*%
%ADD27RoundRect,0.140000X0.140000X0.170000X-0.140000X0.170000X-0.140000X-0.170000X0.140000X-0.170000X0*%
%ADD28RoundRect,0.147500X0.172500X-0.147500X0.172500X0.147500X-0.172500X0.147500X-0.172500X-0.147500X0*%
%ADD29RoundRect,0.140000X-0.140000X-0.170000X0.140000X-0.170000X0.140000X0.170000X-0.140000X0.170000X0*%
%ADD30RoundRect,0.200000X0.200000X0.275000X-0.200000X0.275000X-0.200000X-0.275000X0.200000X-0.275000X0*%
%ADD31RoundRect,0.200000X-0.200000X-0.275000X0.200000X-0.275000X0.200000X0.275000X-0.200000X0.275000X0*%
%ADD32R,1.000000X3.000000*%
%ADD33RoundRect,0.225000X0.225000X0.250000X-0.225000X0.250000X-0.225000X-0.250000X0.225000X-0.250000X0*%
%ADD34RoundRect,0.250000X-0.262500X-0.450000X0.262500X-0.450000X0.262500X0.450000X-0.262500X0.450000X0*%
%ADD35RoundRect,0.250000X-0.312500X-0.625000X0.312500X-0.625000X0.312500X0.625000X-0.312500X0.625000X0*%
%ADD36RoundRect,0.250000X-1.250000X-0.550000X1.250000X-0.550000X1.250000X0.550000X-1.250000X0.550000X0*%
%ADD37RoundRect,0.112500X-0.112500X0.187500X-0.112500X-0.187500X0.112500X-0.187500X0.112500X0.187500X0*%
%ADD38RoundRect,0.250000X-0.250000X-0.475000X0.250000X-0.475000X0.250000X0.475000X-0.250000X0.475000X0*%
%ADD39RoundRect,0.200000X-0.275000X0.200000X-0.275000X-0.200000X0.275000X-0.200000X0.275000X0.200000X0*%
%ADD40RoundRect,0.150000X-0.150000X0.590000X-0.150000X-0.590000X0.150000X-0.590000X0.150000X0.590000X0*%
%ADD41RoundRect,0.150000X0.150000X-0.825000X0.150000X0.825000X-0.150000X0.825000X-0.150000X-0.825000X0*%
%ADD42R,0.600000X2.200000*%
%ADD43R,3.000000X1.000000*%
%ADD44RoundRect,0.225000X-0.225000X-0.250000X0.225000X-0.250000X0.225000X0.250000X-0.225000X0.250000X0*%
%ADD45RoundRect,0.075000X-0.725000X-0.075000X0.725000X-0.075000X0.725000X0.075000X-0.725000X0.075000X0*%
%ADD46RoundRect,0.075000X-0.075000X-0.725000X0.075000X-0.725000X0.075000X0.725000X-0.075000X0.725000X0*%
%ADD47RoundRect,0.250000X-0.625000X0.312500X-0.625000X-0.312500X0.625000X-0.312500X0.625000X0.312500X0*%
%ADD48R,0.900000X0.800000*%
G04 APERTURE END LIST*
D10*
%TO.C,U8*%
X68600000Y-91277275D03*
X69250000Y-91277275D03*
X69900000Y-91277275D03*
X69900000Y-89377275D03*
X68600000Y-89377275D03*
%TD*%
D11*
%TO.C,R164*%
X146910000Y-79315000D03*
X146910000Y-78295000D03*
%TD*%
D12*
%TO.C,C103*%
X154500000Y-150610000D03*
X154500000Y-149650000D03*
%TD*%
D13*
%TO.C,C64*%
X103095000Y-97460000D03*
X103095000Y-98420000D03*
%TD*%
D14*
%TO.C,R73*%
X69400000Y-157090000D03*
X69400000Y-158110000D03*
%TD*%
D15*
%TO.C,U47*%
X141380000Y-85170000D03*
D16*
X142530000Y-85170000D03*
D15*
X142680000Y-83520000D03*
X141380000Y-83520000D03*
%TD*%
D12*
%TO.C,C115*%
X161901621Y-136650000D03*
X161901621Y-135690000D03*
%TD*%
D17*
%TO.C,D7*%
X55399944Y-126977275D03*
X55399944Y-131277275D03*
%TD*%
D18*
%TO.C,U4*%
X45200000Y-92677275D03*
X44550000Y-92677275D03*
X43900000Y-92677275D03*
X43900000Y-94577275D03*
X45200000Y-94577275D03*
%TD*%
D19*
%TO.C,R139*%
X165461621Y-136650000D03*
X164441621Y-136650000D03*
%TD*%
D18*
%TO.C,U15*%
X52200000Y-92677275D03*
X51550000Y-92677275D03*
X50900000Y-92677275D03*
X50900000Y-94577275D03*
X52200000Y-94577275D03*
%TD*%
D17*
%TO.C,D36*%
X99900000Y-140372500D03*
X99900000Y-144672500D03*
%TD*%
D20*
%TO.C,L1*%
X50470000Y-75825000D03*
X34225000Y-75825000D03*
%TD*%
D21*
%TO.C,U40*%
X36952500Y-61112499D03*
X36952500Y-62382499D03*
X36952500Y-63652499D03*
X36952500Y-64922499D03*
X41902500Y-64922499D03*
X41902500Y-63652499D03*
X41902500Y-62382499D03*
X41902500Y-61112499D03*
%TD*%
D22*
%TO.C,R168*%
X108565000Y-37300000D03*
X109585000Y-37300000D03*
%TD*%
D11*
%TO.C,R165*%
X149730000Y-79315000D03*
X149730000Y-78295000D03*
%TD*%
D23*
%TO.C,D39*%
X97700000Y-121494167D03*
X97700000Y-117194167D03*
%TD*%
D17*
%TO.C,D46*%
X113300000Y-105672500D03*
X113300000Y-109972500D03*
%TD*%
D11*
%TO.C,R148*%
X139860000Y-79315000D03*
X139860000Y-78295000D03*
%TD*%
D12*
%TO.C,C22*%
X42547444Y-96787275D03*
X42547444Y-95827275D03*
%TD*%
D11*
%TO.C,R115*%
X149420000Y-150640000D03*
X149420000Y-149620000D03*
%TD*%
%TO.C,R118*%
X143070000Y-150640000D03*
X143070000Y-149620000D03*
%TD*%
D24*
%TO.C,D53*%
X103828333Y-54440000D03*
X104798333Y-54440000D03*
%TD*%
D25*
%TO.C,U24*%
X69847444Y-98387275D03*
X68577444Y-98387275D03*
X67297444Y-98387275D03*
X66027444Y-98387275D03*
X66027444Y-103627275D03*
X67297444Y-103627275D03*
X68577444Y-103627275D03*
X69847444Y-103627275D03*
%TD*%
D11*
%TO.C,R71*%
X93495000Y-98420000D03*
X93495000Y-97400000D03*
%TD*%
D23*
%TO.C,D35*%
X95300000Y-144627500D03*
X95300000Y-140327500D03*
%TD*%
D26*
%TO.C,U39*%
X116505000Y-90725000D03*
X115235000Y-90725000D03*
X113965000Y-90725000D03*
X112695000Y-90725000D03*
X112695000Y-95675000D03*
X113965000Y-95675000D03*
X115235000Y-95675000D03*
X116505000Y-95675000D03*
%TD*%
D27*
%TO.C,C101*%
X120965000Y-59800000D03*
X120005000Y-59800000D03*
%TD*%
D17*
%TO.C,D15*%
X69599944Y-126977275D03*
X69599944Y-131277275D03*
%TD*%
D23*
%TO.C,D27*%
X85500000Y-144627500D03*
X85500000Y-140327500D03*
%TD*%
D28*
%TO.C,D55*%
X124960000Y-47760000D03*
X124960000Y-46790000D03*
%TD*%
D14*
%TO.C,R13*%
X35777444Y-105207275D03*
X35777444Y-106227275D03*
%TD*%
D25*
%TO.C,U30*%
X42547444Y-98387275D03*
X41277444Y-98387275D03*
X39997444Y-98387275D03*
X38727444Y-98387275D03*
X38727444Y-103627275D03*
X39997444Y-103627275D03*
X41277444Y-103627275D03*
X42547444Y-103627275D03*
%TD*%
D29*
%TO.C,C116*%
X164441621Y-135630000D03*
X165401621Y-135630000D03*
%TD*%
D25*
%TO.C,U19*%
X53447444Y-98387275D03*
X52177444Y-98387275D03*
X50897444Y-98387275D03*
X49627444Y-98387275D03*
X49627444Y-103627275D03*
X50897444Y-103627275D03*
X52177444Y-103627275D03*
X53447444Y-103627275D03*
%TD*%
D27*
%TO.C,C11*%
X59772444Y-145227275D03*
X58812444Y-145227275D03*
%TD*%
D30*
%TO.C,R177*%
X54375000Y-36100000D03*
X52725000Y-36100000D03*
%TD*%
D11*
%TO.C,R162*%
X141270000Y-79315000D03*
X141270000Y-78295000D03*
%TD*%
%TO.C,R133*%
X163171621Y-136650000D03*
X163171621Y-135630000D03*
%TD*%
D31*
%TO.C,R175*%
X52725000Y-45000000D03*
X54375000Y-45000000D03*
%TD*%
D14*
%TO.C,R129*%
X170791621Y-154910000D03*
X170791621Y-155930000D03*
%TD*%
D17*
%TO.C,D34*%
X101100000Y-128805833D03*
X101100000Y-133105833D03*
%TD*%
D13*
%TO.C,C30*%
X45502444Y-105207275D03*
X45502444Y-106167275D03*
%TD*%
D12*
%TO.C,C7*%
X56297444Y-106167275D03*
X56297444Y-105207275D03*
%TD*%
D29*
%TO.C,C2*%
X53833778Y-93227275D03*
X54793778Y-93227275D03*
%TD*%
D23*
%TO.C,D25*%
X86808333Y-133060833D03*
X86808333Y-128760833D03*
%TD*%
D17*
%TO.C,D38*%
X103500000Y-105672500D03*
X103500000Y-109972500D03*
%TD*%
D24*
%TO.C,D54*%
X110343333Y-54440000D03*
X111313333Y-54440000D03*
%TD*%
D12*
%TO.C,C63*%
X70400000Y-160080000D03*
X70400000Y-159120000D03*
%TD*%
%TO.C,C94*%
X126100000Y-52165000D03*
X126100000Y-51205000D03*
%TD*%
D17*
%TO.C,D3*%
X51849944Y-138152275D03*
X51849944Y-142452275D03*
%TD*%
%TO.C,D48*%
X112100000Y-117239167D03*
X112100000Y-121539167D03*
%TD*%
D11*
%TO.C,R72*%
X90955000Y-98420000D03*
X90955000Y-97400000D03*
%TD*%
D32*
%TO.C,J12*%
X172061621Y-130180000D03*
X172061621Y-135220000D03*
X174601621Y-130180000D03*
X174601621Y-135220000D03*
X177141621Y-130180000D03*
X177141621Y-135220000D03*
%TD*%
D12*
%TO.C,C60*%
X68400000Y-160080000D03*
X68400000Y-159120000D03*
%TD*%
D22*
%TO.C,R144*%
X106000000Y-53360000D03*
X107020000Y-53360000D03*
%TD*%
D11*
%TO.C,R67*%
X88060000Y-98420000D03*
X88060000Y-97400000D03*
%TD*%
%TO.C,R109*%
X158485000Y-147760000D03*
X158485000Y-146740000D03*
%TD*%
D14*
%TO.C,R18*%
X46772444Y-105207275D03*
X46772444Y-106227275D03*
%TD*%
%TO.C,R117*%
X151960000Y-149620000D03*
X151960000Y-150640000D03*
%TD*%
%TO.C,R15*%
X33227444Y-105207275D03*
X33227444Y-106227275D03*
%TD*%
D17*
%TO.C,D19*%
X37649944Y-138152275D03*
X37649944Y-142452275D03*
%TD*%
D14*
%TO.C,R134*%
X170791621Y-149620000D03*
X170791621Y-150640000D03*
%TD*%
D23*
%TO.C,D31*%
X88116667Y-121494167D03*
X88116667Y-117194167D03*
%TD*%
D31*
%TO.C,R105*%
X71020000Y-66200000D03*
X72670000Y-66200000D03*
%TD*%
D33*
%TO.C,C74*%
X48627500Y-64922499D03*
X47077500Y-64922499D03*
%TD*%
D11*
%TO.C,R113*%
X148150000Y-150640000D03*
X148150000Y-149620000D03*
%TD*%
D29*
%TO.C,C27*%
X46520000Y-145227275D03*
X47480000Y-145227275D03*
%TD*%
D12*
%TO.C,C66*%
X72400000Y-160080000D03*
X72400000Y-159120000D03*
%TD*%
D34*
%TO.C,R95*%
X76790000Y-82750000D03*
X78615000Y-82750000D03*
%TD*%
D22*
%TO.C,R143*%
X106000000Y-52280000D03*
X107020000Y-52280000D03*
%TD*%
D15*
%TO.C,U52*%
X143426667Y-82130000D03*
D16*
X144576667Y-82130000D03*
D15*
X144726667Y-80480000D03*
X143426667Y-80480000D03*
%TD*%
D34*
%TO.C,R99*%
X85610000Y-76850000D03*
X87435000Y-76850000D03*
%TD*%
D35*
%TO.C,R91*%
X85487500Y-73300000D03*
X88412500Y-73300000D03*
%TD*%
D17*
%TO.C,D20*%
X44749944Y-138152275D03*
X44749944Y-142452275D03*
%TD*%
D18*
%TO.C,U17*%
X74052556Y-92677275D03*
X73402556Y-92677275D03*
X72752556Y-92677275D03*
X72752556Y-94577275D03*
X74052556Y-94577275D03*
%TD*%
D14*
%TO.C,R86*%
X73400000Y-157090000D03*
X73400000Y-158110000D03*
%TD*%
D36*
%TO.C,C118*%
X166400000Y-67050000D03*
X170800000Y-67050000D03*
%TD*%
D26*
%TO.C,U36*%
X100200000Y-90725000D03*
X98930000Y-90725000D03*
X97660000Y-90725000D03*
X96390000Y-90725000D03*
X96390000Y-95675000D03*
X97660000Y-95675000D03*
X98930000Y-95675000D03*
X100200000Y-95675000D03*
%TD*%
D37*
%TO.C,D17*%
X37237444Y-105397275D03*
X37237444Y-107497275D03*
%TD*%
D33*
%TO.C,C77*%
X72600000Y-64600000D03*
X71050000Y-64600000D03*
%TD*%
D19*
%TO.C,R122*%
X146630000Y-136650000D03*
X145610000Y-136650000D03*
%TD*%
D11*
%TO.C,R125*%
X177416621Y-147760000D03*
X177416621Y-146740000D03*
%TD*%
%TO.C,R121*%
X148150000Y-136650000D03*
X148150000Y-135630000D03*
%TD*%
%TO.C,R135*%
X161916621Y-150660000D03*
X161916621Y-149640000D03*
%TD*%
D13*
%TO.C,C61*%
X97660000Y-97460000D03*
X97660000Y-98420000D03*
%TD*%
D38*
%TO.C,C79*%
X45575000Y-58000000D03*
X47475000Y-58000000D03*
%TD*%
D36*
%TO.C,C121*%
X166400000Y-73150000D03*
X170800000Y-73150000D03*
%TD*%
D11*
%TO.C,R167*%
X130930000Y-47810000D03*
X130930000Y-46790000D03*
%TD*%
D17*
%TO.C,D23*%
X41199944Y-126977275D03*
X41199944Y-131277275D03*
%TD*%
D26*
%TO.C,U37*%
X105635000Y-90725000D03*
X104365000Y-90725000D03*
X103095000Y-90725000D03*
X101825000Y-90725000D03*
X101825000Y-95675000D03*
X103095000Y-95675000D03*
X104365000Y-95675000D03*
X105635000Y-95675000D03*
%TD*%
D29*
%TO.C,C124*%
X100620000Y-42400000D03*
X101580000Y-42400000D03*
%TD*%
D39*
%TO.C,R173*%
X93100000Y-76025000D03*
X93100000Y-77675000D03*
%TD*%
D12*
%TO.C,C102*%
X141800000Y-150610000D03*
X141800000Y-149650000D03*
%TD*%
D13*
%TO.C,C104*%
X150690000Y-135630000D03*
X150690000Y-136590000D03*
%TD*%
D29*
%TO.C,C73*%
X40347500Y-66217499D03*
X41307500Y-66217499D03*
%TD*%
D40*
%TO.C,Q35*%
X168881621Y-154050000D03*
X166981621Y-154050000D03*
X167931621Y-155930000D03*
%TD*%
D15*
%TO.C,U50*%
X149840000Y-85170000D03*
D16*
X150990000Y-85170000D03*
D15*
X151140000Y-83520000D03*
X149840000Y-83520000D03*
%TD*%
D11*
%TO.C,R151*%
X142680000Y-79315000D03*
X142680000Y-78295000D03*
%TD*%
D17*
%TO.C,D28*%
X90100000Y-140372500D03*
X90100000Y-144672500D03*
%TD*%
D14*
%TO.C,R9*%
X66027444Y-105207275D03*
X66027444Y-106227275D03*
%TD*%
D13*
%TO.C,C55*%
X86790000Y-97460000D03*
X86790000Y-98420000D03*
%TD*%
D12*
%TO.C,C105*%
X140570000Y-150610000D03*
X140570000Y-149650000D03*
%TD*%
D22*
%TO.C,R146*%
X103828333Y-53360000D03*
X104848333Y-53360000D03*
%TD*%
D11*
%TO.C,R163*%
X144090000Y-79315000D03*
X144090000Y-78295000D03*
%TD*%
D13*
%TO.C,C21*%
X78302444Y-105207275D03*
X78302444Y-106167275D03*
%TD*%
D14*
%TO.C,R81*%
X77400000Y-157090000D03*
X77400000Y-158110000D03*
%TD*%
D30*
%TO.C,R176*%
X110725000Y-76400000D03*
X109075000Y-76400000D03*
%TD*%
D12*
%TO.C,C110*%
X160631621Y-150600000D03*
X160631621Y-149640000D03*
%TD*%
D38*
%TO.C,C80*%
X59625000Y-58000000D03*
X61525000Y-58000000D03*
%TD*%
D13*
%TO.C,C99*%
X130600000Y-74435000D03*
X130600000Y-75395000D03*
%TD*%
D14*
%TO.C,R11*%
X77032444Y-105207275D03*
X77032444Y-106227275D03*
%TD*%
D11*
%TO.C,R132*%
X168251621Y-150640000D03*
X168251621Y-149620000D03*
%TD*%
D12*
%TO.C,C69*%
X73400000Y-160080000D03*
X73400000Y-159120000D03*
%TD*%
D18*
%TO.C,U18*%
X80800000Y-92677275D03*
X80150000Y-92677275D03*
X79500000Y-92677275D03*
X79500000Y-94577275D03*
X80800000Y-94577275D03*
%TD*%
D36*
%TO.C,C120*%
X166400000Y-53700000D03*
X170800000Y-53700000D03*
%TD*%
D14*
%TO.C,R7*%
X68577444Y-105207275D03*
X68577444Y-106227275D03*
%TD*%
%TO.C,R90*%
X75400000Y-157090000D03*
X75400000Y-158110000D03*
%TD*%
D13*
%TO.C,C70*%
X113965000Y-97460000D03*
X113965000Y-98420000D03*
%TD*%
D37*
%TO.C,D18*%
X42787444Y-105397275D03*
X42787444Y-107497275D03*
%TD*%
D14*
%TO.C,R136*%
X163171621Y-149640000D03*
X163171621Y-150660000D03*
%TD*%
%TO.C,R2*%
X57577444Y-105207275D03*
X57577444Y-106227275D03*
%TD*%
D11*
%TO.C,R83*%
X109800000Y-98420000D03*
X109800000Y-97400000D03*
%TD*%
%TO.C,R131*%
X165711621Y-150640000D03*
X165711621Y-149620000D03*
%TD*%
D33*
%TO.C,C75*%
X48627500Y-62382499D03*
X47077500Y-62382499D03*
%TD*%
D14*
%TO.C,R70*%
X67400000Y-157090000D03*
X67400000Y-158110000D03*
%TD*%
D23*
%TO.C,D13*%
X71363444Y-121527275D03*
X71363444Y-117227275D03*
%TD*%
D14*
%TO.C,R110*%
X151960000Y-154910000D03*
X151960000Y-155930000D03*
%TD*%
D36*
%TO.C,C119*%
X166400000Y-59800000D03*
X170800000Y-59800000D03*
%TD*%
D29*
%TO.C,C123*%
X111620000Y-43660000D03*
X112580000Y-43660000D03*
%TD*%
D15*
%TO.C,U46*%
X138560000Y-85170000D03*
D16*
X139710000Y-85170000D03*
D15*
X139860000Y-83520000D03*
X138560000Y-83520000D03*
%TD*%
D18*
%TO.C,U9*%
X41250000Y-92677275D03*
X40600000Y-92677275D03*
X39950000Y-92677275D03*
X39950000Y-94577275D03*
X41250000Y-94577275D03*
%TD*%
D17*
%TO.C,D24*%
X48299944Y-126977275D03*
X48299944Y-131277275D03*
%TD*%
D18*
%TO.C,U5*%
X57652556Y-92677275D03*
X57002556Y-92677275D03*
X56352556Y-92677275D03*
X56352556Y-94577275D03*
X57652556Y-94577275D03*
%TD*%
D12*
%TO.C,C5*%
X58847444Y-96787275D03*
X58847444Y-95827275D03*
%TD*%
D11*
%TO.C,R16*%
X38727444Y-106227275D03*
X38727444Y-105207275D03*
%TD*%
D17*
%TO.C,D44*%
X109700000Y-140372500D03*
X109700000Y-144672500D03*
%TD*%
D25*
%TO.C,U25*%
X75347444Y-98387275D03*
X74077444Y-98387275D03*
X72797444Y-98387275D03*
X71527444Y-98387275D03*
X71527444Y-103627275D03*
X72797444Y-103627275D03*
X74077444Y-103627275D03*
X75347444Y-103627275D03*
%TD*%
D29*
%TO.C,C3*%
X70233778Y-93227275D03*
X71193778Y-93227275D03*
%TD*%
D11*
%TO.C,R114*%
X146880000Y-150640000D03*
X146880000Y-149620000D03*
%TD*%
%TO.C,R79*%
X104365000Y-98420000D03*
X104365000Y-97400000D03*
%TD*%
D26*
%TO.C,U38*%
X111070000Y-90725000D03*
X109800000Y-90725000D03*
X108530000Y-90725000D03*
X107260000Y-90725000D03*
X107260000Y-95675000D03*
X108530000Y-95675000D03*
X109800000Y-95675000D03*
X111070000Y-95675000D03*
%TD*%
D14*
%TO.C,R3*%
X49627444Y-105207275D03*
X49627444Y-106227275D03*
%TD*%
D11*
%TO.C,R116*%
X144340000Y-136650000D03*
X144340000Y-135630000D03*
%TD*%
D29*
%TO.C,C122*%
X111620000Y-39850000D03*
X112580000Y-39850000D03*
%TD*%
D11*
%TO.C,R130*%
X166981621Y-150640000D03*
X166981621Y-149620000D03*
%TD*%
D15*
%TO.C,U51*%
X140610000Y-82130000D03*
D16*
X141760000Y-82130000D03*
D15*
X141910000Y-80480000D03*
X140610000Y-80480000D03*
%TD*%
D13*
%TO.C,C12*%
X61902444Y-105207275D03*
X61902444Y-106167275D03*
%TD*%
D19*
%TO.C,R127*%
X165461621Y-134619000D03*
X164441621Y-134619000D03*
%TD*%
D10*
%TO.C,U7*%
X41297444Y-91277275D03*
X41947444Y-91277275D03*
X42597444Y-91277275D03*
X42597444Y-89377275D03*
X41297444Y-89377275D03*
%TD*%
D12*
%TO.C,C68*%
X74400000Y-160080000D03*
X74400000Y-159120000D03*
%TD*%
D11*
%TO.C,R155*%
X148320000Y-79315000D03*
X148320000Y-78295000D03*
%TD*%
D15*
%TO.C,U48*%
X144200000Y-85170000D03*
D16*
X145350000Y-85170000D03*
D15*
X145500000Y-83520000D03*
X144200000Y-83520000D03*
%TD*%
D12*
%TO.C,C57*%
X67400000Y-160080000D03*
X67400000Y-159120000D03*
%TD*%
D11*
%TO.C,R84*%
X107260000Y-98420000D03*
X107260000Y-97400000D03*
%TD*%
D26*
%TO.C,U33*%
X48042444Y-98532275D03*
X46772444Y-98532275D03*
X45502444Y-98532275D03*
X44232444Y-98532275D03*
X44232444Y-103482275D03*
X45502444Y-103482275D03*
X46772444Y-103482275D03*
X48042444Y-103482275D03*
%TD*%
D12*
%TO.C,C15*%
X67297444Y-106167275D03*
X67297444Y-105207275D03*
%TD*%
D29*
%TO.C,C108*%
X145610000Y-135630000D03*
X146570000Y-135630000D03*
%TD*%
D23*
%TO.C,D45*%
X108700000Y-109927500D03*
X108700000Y-105627500D03*
%TD*%
D34*
%TO.C,R92*%
X76790000Y-76850000D03*
X78615000Y-76850000D03*
%TD*%
D29*
%TO.C,C18*%
X74920000Y-145227275D03*
X75880000Y-145227275D03*
%TD*%
D12*
%TO.C,C65*%
X77400000Y-160080000D03*
X77400000Y-159120000D03*
%TD*%
D29*
%TO.C,C9*%
X60700000Y-145227275D03*
X61660000Y-145227275D03*
%TD*%
D14*
%TO.C,R82*%
X72400000Y-157090000D03*
X72400000Y-158110000D03*
%TD*%
D17*
%TO.C,D40*%
X102300000Y-117239167D03*
X102300000Y-121539167D03*
%TD*%
D11*
%TO.C,R154*%
X145500000Y-79315000D03*
X145500000Y-78295000D03*
%TD*%
D23*
%TO.C,D14*%
X78463444Y-121527275D03*
X78463444Y-117227275D03*
%TD*%
D31*
%TO.C,R174*%
X87225000Y-62500000D03*
X88875000Y-62500000D03*
%TD*%
D13*
%TO.C,C112*%
X169521621Y-135630000D03*
X169521621Y-136590000D03*
%TD*%
D14*
%TO.C,R14*%
X41277444Y-105207275D03*
X41277444Y-106227275D03*
%TD*%
D17*
%TO.C,D12*%
X73149944Y-138152275D03*
X73149944Y-142452275D03*
%TD*%
D10*
%TO.C,U2*%
X57700000Y-91277275D03*
X58350000Y-91277275D03*
X59000000Y-91277275D03*
X59000000Y-89377275D03*
X57700000Y-89377275D03*
%TD*%
D14*
%TO.C,R78*%
X70400000Y-157090000D03*
X70400000Y-158110000D03*
%TD*%
D11*
%TO.C,R137*%
X164441621Y-150640000D03*
X164441621Y-149620000D03*
%TD*%
D29*
%TO.C,C8*%
X53620000Y-145227275D03*
X54580000Y-145227275D03*
%TD*%
D11*
%TO.C,R68*%
X85520000Y-98420000D03*
X85520000Y-97400000D03*
%TD*%
D26*
%TO.C,U23*%
X64442444Y-98532275D03*
X63172444Y-98532275D03*
X61902444Y-98532275D03*
X60632444Y-98532275D03*
X60632444Y-103482275D03*
X61902444Y-103482275D03*
X63172444Y-103482275D03*
X64442444Y-103482275D03*
%TD*%
D37*
%TO.C,D10*%
X75587444Y-105397275D03*
X75587444Y-107497275D03*
%TD*%
D22*
%TO.C,R112*%
X145610000Y-133599000D03*
X146630000Y-133599000D03*
%TD*%
D11*
%TO.C,R140*%
X174601621Y-150670000D03*
X174601621Y-149650000D03*
%TD*%
D25*
%TO.C,U20*%
X58847444Y-98387275D03*
X57577444Y-98387275D03*
X56297444Y-98387275D03*
X55027444Y-98387275D03*
X55027444Y-103627275D03*
X56297444Y-103627275D03*
X57577444Y-103627275D03*
X58847444Y-103627275D03*
%TD*%
D41*
%TO.C,U22*%
X58812444Y-151902275D03*
X60082444Y-151902275D03*
X61352444Y-151902275D03*
X62622444Y-151902275D03*
X62622444Y-146952275D03*
X61352444Y-146952275D03*
X60082444Y-146952275D03*
X58812444Y-146952275D03*
%TD*%
D42*
%TO.C,U43*%
X160631621Y-147750000D03*
X161901621Y-147750000D03*
X163171621Y-147750000D03*
X164441621Y-147750000D03*
X165711621Y-147750000D03*
X166981621Y-147750000D03*
X168251621Y-147750000D03*
X169521621Y-147750000D03*
X170791621Y-147750000D03*
X172061621Y-147750000D03*
X173331621Y-147750000D03*
X174601621Y-147750000D03*
X174601621Y-138550000D03*
X173331621Y-138550000D03*
X172061621Y-138550000D03*
X170791621Y-138550000D03*
X169521621Y-138550000D03*
X168251621Y-138550000D03*
X166981621Y-138550000D03*
X165711621Y-138550000D03*
X164441621Y-138550000D03*
X163171621Y-138550000D03*
X161901621Y-138550000D03*
X160631621Y-138550000D03*
%TD*%
D29*
%TO.C,C96*%
X143235000Y-62800000D03*
X144195000Y-62800000D03*
%TD*%
D17*
%TO.C,D16*%
X76699944Y-126977275D03*
X76699944Y-131277275D03*
%TD*%
D22*
%TO.C,R128*%
X164441621Y-133599000D03*
X165461621Y-133599000D03*
%TD*%
D37*
%TO.C,D1*%
X53637444Y-105397275D03*
X53637444Y-107497275D03*
%TD*%
D15*
%TO.C,U49*%
X147020000Y-85170000D03*
D16*
X148170000Y-85170000D03*
D15*
X148320000Y-83520000D03*
X147020000Y-83520000D03*
%TD*%
D11*
%TO.C,R107*%
X153230000Y-150640000D03*
X153230000Y-149620000D03*
%TD*%
D37*
%TO.C,D9*%
X70037444Y-105397275D03*
X70037444Y-107497275D03*
%TD*%
D11*
%TO.C,R87*%
X115235000Y-98420000D03*
X115235000Y-97400000D03*
%TD*%
D15*
%TO.C,U53*%
X146243333Y-82130000D03*
D16*
X147393333Y-82130000D03*
D15*
X147543333Y-80480000D03*
X146243333Y-80480000D03*
%TD*%
D13*
%TO.C,C109*%
X156970000Y-149590000D03*
X156970000Y-150550000D03*
%TD*%
D18*
%TO.C,U6*%
X64472444Y-92677275D03*
X63822444Y-92677275D03*
X63172444Y-92677275D03*
X63172444Y-94577275D03*
X64472444Y-94577275D03*
%TD*%
D17*
%TO.C,D30*%
X94025000Y-105672500D03*
X94025000Y-109972500D03*
%TD*%
D41*
%TO.C,U26*%
X65912444Y-151902275D03*
X67182444Y-151902275D03*
X68452444Y-151902275D03*
X69722444Y-151902275D03*
X69722444Y-146952275D03*
X68452444Y-146952275D03*
X67182444Y-146952275D03*
X65912444Y-146952275D03*
%TD*%
%TO.C,U31*%
X37512444Y-151902275D03*
X38782444Y-151902275D03*
X40052444Y-151902275D03*
X41322444Y-151902275D03*
X41322444Y-146952275D03*
X40052444Y-146952275D03*
X38782444Y-146952275D03*
X37512444Y-146952275D03*
%TD*%
D23*
%TO.C,D5*%
X57163444Y-121527275D03*
X57163444Y-117227275D03*
%TD*%
D43*
%TO.C,J2*%
X136745000Y-97930000D03*
X131705000Y-97930000D03*
X136745000Y-100470000D03*
X131705000Y-100470000D03*
X136745000Y-103010000D03*
X131705000Y-103010000D03*
X136745000Y-105550000D03*
X131705000Y-105550000D03*
X136745000Y-108090000D03*
X131705000Y-108090000D03*
X136745000Y-110630000D03*
X131705000Y-110630000D03*
X136745000Y-113170000D03*
X131705000Y-113170000D03*
X136745000Y-115710000D03*
X131705000Y-115710000D03*
X136745000Y-118250000D03*
X131705000Y-118250000D03*
X136745000Y-120790000D03*
X131705000Y-120790000D03*
X136745000Y-123330000D03*
X131705000Y-123330000D03*
X136745000Y-125870000D03*
X131705000Y-125870000D03*
X136745000Y-128410000D03*
X131705000Y-128410000D03*
X136745000Y-130950000D03*
X131705000Y-130950000D03*
X136745000Y-133490000D03*
X131705000Y-133490000D03*
X136745000Y-136030000D03*
X131705000Y-136030000D03*
X136745000Y-138570000D03*
X131705000Y-138570000D03*
X136745000Y-141110000D03*
X131705000Y-141110000D03*
%TD*%
D29*
%TO.C,C26*%
X39340000Y-145227275D03*
X40300000Y-145227275D03*
%TD*%
D27*
%TO.C,C93*%
X125880000Y-49950000D03*
X124920000Y-49950000D03*
%TD*%
D40*
%TO.C,Q33*%
X150050000Y-154050000D03*
X148150000Y-154050000D03*
X149100000Y-155930000D03*
%TD*%
D24*
%TO.C,D52*%
X106000000Y-54440000D03*
X106970000Y-54440000D03*
%TD*%
D12*
%TO.C,C113*%
X159416621Y-150600000D03*
X159416621Y-149640000D03*
%TD*%
D37*
%TO.C,D2*%
X59187444Y-105397275D03*
X59187444Y-107497275D03*
%TD*%
D23*
%TO.C,D43*%
X105100000Y-144627500D03*
X105100000Y-140327500D03*
%TD*%
D41*
%TO.C,U27*%
X73012444Y-151902275D03*
X74282444Y-151902275D03*
X75552444Y-151902275D03*
X76822444Y-151902275D03*
X76822444Y-146952275D03*
X75552444Y-146952275D03*
X74282444Y-146952275D03*
X73012444Y-146952275D03*
%TD*%
D26*
%TO.C,U35*%
X94765000Y-90725000D03*
X93495000Y-90725000D03*
X92225000Y-90725000D03*
X90955000Y-90725000D03*
X90955000Y-95675000D03*
X92225000Y-95675000D03*
X93495000Y-95675000D03*
X94765000Y-95675000D03*
%TD*%
D10*
%TO.C,U14*%
X74100000Y-91277275D03*
X74750000Y-91277275D03*
X75400000Y-91277275D03*
X75400000Y-89377275D03*
X74100000Y-89377275D03*
%TD*%
D14*
%TO.C,R124*%
X176416621Y-146740000D03*
X176416621Y-147760000D03*
%TD*%
D22*
%TO.C,R145*%
X103828333Y-52280000D03*
X104848333Y-52280000D03*
%TD*%
D23*
%TO.C,D47*%
X107500000Y-121494167D03*
X107500000Y-117194167D03*
%TD*%
D11*
%TO.C,R80*%
X101825000Y-98420000D03*
X101825000Y-97400000D03*
%TD*%
D29*
%TO.C,C92*%
X130020000Y-48850000D03*
X130980000Y-48850000D03*
%TD*%
D12*
%TO.C,C59*%
X69400000Y-160080000D03*
X69400000Y-159120000D03*
%TD*%
%TO.C,C72*%
X75400000Y-160080000D03*
X75400000Y-159120000D03*
%TD*%
D13*
%TO.C,C114*%
X169521621Y-149650000D03*
X169521621Y-150610000D03*
%TD*%
D25*
%TO.C,U29*%
X37047444Y-98387275D03*
X35777444Y-98387275D03*
X34497444Y-98387275D03*
X33227444Y-98387275D03*
X33227444Y-103627275D03*
X34497444Y-103627275D03*
X35777444Y-103627275D03*
X37047444Y-103627275D03*
%TD*%
D11*
%TO.C,R10*%
X71527444Y-106227275D03*
X71527444Y-105207275D03*
%TD*%
D14*
%TO.C,R108*%
X157485000Y-146730000D03*
X157485000Y-147750000D03*
%TD*%
D17*
%TO.C,D32*%
X92716667Y-117239167D03*
X92716667Y-121539167D03*
%TD*%
D11*
%TO.C,R120*%
X145610000Y-150640000D03*
X145610000Y-149620000D03*
%TD*%
D12*
%TO.C,C107*%
X143070000Y-136650000D03*
X143070000Y-135690000D03*
%TD*%
D14*
%TO.C,R5*%
X60632444Y-105207275D03*
X60632444Y-106227275D03*
%TD*%
D30*
%TO.C,R106*%
X75450000Y-46800000D03*
X73800000Y-46800000D03*
%TD*%
D29*
%TO.C,C17*%
X67800000Y-145227275D03*
X68760000Y-145227275D03*
%TD*%
D44*
%TO.C,C76*%
X32752500Y-64600000D03*
X34302500Y-64600000D03*
%TD*%
D17*
%TO.C,D26*%
X91408333Y-128805833D03*
X91408333Y-133105833D03*
%TD*%
D11*
%TO.C,R123*%
X155770000Y-150610000D03*
X155770000Y-149590000D03*
%TD*%
%TO.C,R126*%
X172061621Y-150640000D03*
X172061621Y-149620000D03*
%TD*%
D23*
%TO.C,D22*%
X50063444Y-121527275D03*
X50063444Y-117227275D03*
%TD*%
%TO.C,D6*%
X64263444Y-121527275D03*
X64263444Y-117227275D03*
%TD*%
D45*
%TO.C,U41*%
X124425000Y-57300000D03*
X124425000Y-57800000D03*
X124425000Y-58300000D03*
X124425000Y-58800000D03*
X124425000Y-59300000D03*
X124425000Y-59800000D03*
X124425000Y-60300000D03*
X124425000Y-60800000D03*
X124425000Y-61300000D03*
X124425000Y-61800000D03*
X124425000Y-62300000D03*
X124425000Y-62800000D03*
X124425000Y-63300000D03*
X124425000Y-63800000D03*
X124425000Y-64300000D03*
X124425000Y-64800000D03*
X124425000Y-65300000D03*
X124425000Y-65800000D03*
X124425000Y-66300000D03*
X124425000Y-66800000D03*
X124425000Y-67300000D03*
X124425000Y-67800000D03*
X124425000Y-68300000D03*
X124425000Y-68800000D03*
X124425000Y-69300000D03*
D46*
X126100000Y-70975000D03*
X126600000Y-70975000D03*
X127100000Y-70975000D03*
X127600000Y-70975000D03*
X128100000Y-70975000D03*
X128600000Y-70975000D03*
X129100000Y-70975000D03*
X129600000Y-70975000D03*
X130100000Y-70975000D03*
X130600000Y-70975000D03*
X131100000Y-70975000D03*
X131600000Y-70975000D03*
X132100000Y-70975000D03*
X132600000Y-70975000D03*
X133100000Y-70975000D03*
X133600000Y-70975000D03*
X134100000Y-70975000D03*
X134600000Y-70975000D03*
X135100000Y-70975000D03*
X135600000Y-70975000D03*
X136100000Y-70975000D03*
X136600000Y-70975000D03*
X137100000Y-70975000D03*
X137600000Y-70975000D03*
X138100000Y-70975000D03*
D45*
X139775000Y-69300000D03*
X139775000Y-68800000D03*
X139775000Y-68300000D03*
X139775000Y-67800000D03*
X139775000Y-67300000D03*
X139775000Y-66800000D03*
X139775000Y-66300000D03*
X139775000Y-65800000D03*
X139775000Y-65300000D03*
X139775000Y-64800000D03*
X139775000Y-64300000D03*
X139775000Y-63800000D03*
X139775000Y-63300000D03*
X139775000Y-62800000D03*
X139775000Y-62300000D03*
X139775000Y-61800000D03*
X139775000Y-61300000D03*
X139775000Y-60800000D03*
X139775000Y-60300000D03*
X139775000Y-59800000D03*
X139775000Y-59300000D03*
X139775000Y-58800000D03*
X139775000Y-58300000D03*
X139775000Y-57800000D03*
X139775000Y-57300000D03*
D46*
X138100000Y-55625000D03*
X137600000Y-55625000D03*
X137100000Y-55625000D03*
X136600000Y-55625000D03*
X136100000Y-55625000D03*
X135600000Y-55625000D03*
X135100000Y-55625000D03*
X134600000Y-55625000D03*
X134100000Y-55625000D03*
X133600000Y-55625000D03*
X133100000Y-55625000D03*
X132600000Y-55625000D03*
X132100000Y-55625000D03*
X131600000Y-55625000D03*
X131100000Y-55625000D03*
X130600000Y-55625000D03*
X130100000Y-55625000D03*
X129600000Y-55625000D03*
X129100000Y-55625000D03*
X128600000Y-55625000D03*
X128100000Y-55625000D03*
X127600000Y-55625000D03*
X127100000Y-55625000D03*
X126600000Y-55625000D03*
X126100000Y-55625000D03*
%TD*%
D11*
%TO.C,R76*%
X96390000Y-98420000D03*
X96390000Y-97400000D03*
%TD*%
D10*
%TO.C,U13*%
X52200000Y-91277275D03*
X52850000Y-91277275D03*
X53500000Y-91277275D03*
X53500000Y-89377275D03*
X52200000Y-89377275D03*
%TD*%
D13*
%TO.C,C97*%
X137600000Y-74435000D03*
X137600000Y-75395000D03*
%TD*%
D14*
%TO.C,R17*%
X44232444Y-105207275D03*
X44232444Y-106227275D03*
%TD*%
%TO.C,R69*%
X66400000Y-157090000D03*
X66400000Y-158110000D03*
%TD*%
D23*
%TO.C,D21*%
X42963444Y-121527275D03*
X42963444Y-117227275D03*
%TD*%
D26*
%TO.C,U34*%
X89330000Y-90725000D03*
X88060000Y-90725000D03*
X86790000Y-90725000D03*
X85520000Y-90725000D03*
X85520000Y-95675000D03*
X86790000Y-95675000D03*
X88060000Y-95675000D03*
X89330000Y-95675000D03*
%TD*%
D30*
%TO.C,R102*%
X45677500Y-62382499D03*
X44027500Y-62382499D03*
%TD*%
D27*
%TO.C,C20*%
X73972444Y-145227275D03*
X73012444Y-145227275D03*
%TD*%
D12*
%TO.C,C23*%
X37047444Y-96787275D03*
X37047444Y-95827275D03*
%TD*%
D15*
%TO.C,U54*%
X149060000Y-82130000D03*
D16*
X150210000Y-82130000D03*
D15*
X150360000Y-80480000D03*
X149060000Y-80480000D03*
%TD*%
D22*
%TO.C,R147*%
X110343333Y-53360000D03*
X111363333Y-53360000D03*
%TD*%
D18*
%TO.C,U16*%
X61500000Y-92677275D03*
X60850000Y-92677275D03*
X60200000Y-92677275D03*
X60200000Y-94577275D03*
X61500000Y-94577275D03*
%TD*%
D12*
%TO.C,C25*%
X39997444Y-106167275D03*
X39997444Y-105207275D03*
%TD*%
D29*
%TO.C,C1*%
X37431222Y-93227275D03*
X38391222Y-93227275D03*
%TD*%
D34*
%TO.C,R103*%
X85610000Y-82750000D03*
X87435000Y-82750000D03*
%TD*%
D42*
%TO.C,U42*%
X141800000Y-147750000D03*
X143070000Y-147750000D03*
X144340000Y-147750000D03*
X145610000Y-147750000D03*
X146880000Y-147750000D03*
X148150000Y-147750000D03*
X149420000Y-147750000D03*
X150690000Y-147750000D03*
X151960000Y-147750000D03*
X153230000Y-147750000D03*
X154500000Y-147750000D03*
X155770000Y-147750000D03*
X155770000Y-138550000D03*
X154500000Y-138550000D03*
X153230000Y-138550000D03*
X151960000Y-138550000D03*
X150690000Y-138550000D03*
X149420000Y-138550000D03*
X148150000Y-138550000D03*
X146880000Y-138550000D03*
X145610000Y-138550000D03*
X144340000Y-138550000D03*
X143070000Y-138550000D03*
X141800000Y-138550000D03*
%TD*%
D14*
%TO.C,R1*%
X52177444Y-105207275D03*
X52177444Y-106227275D03*
%TD*%
D13*
%TO.C,C67*%
X108530000Y-97460000D03*
X108530000Y-98420000D03*
%TD*%
D27*
%TO.C,C19*%
X66872444Y-145227275D03*
X65912444Y-145227275D03*
%TD*%
D34*
%TO.C,R101*%
X85610000Y-79800000D03*
X87435000Y-79800000D03*
%TD*%
D44*
%TO.C,C78*%
X73850000Y-48400000D03*
X75400000Y-48400000D03*
%TD*%
D11*
%TO.C,R88*%
X112695000Y-98420000D03*
X112695000Y-97400000D03*
%TD*%
D14*
%TO.C,R119*%
X144340000Y-149640000D03*
X144340000Y-150660000D03*
%TD*%
D21*
%TO.C,U55*%
X104125000Y-39850000D03*
X104125000Y-41120000D03*
X104125000Y-42390000D03*
X104125000Y-43660000D03*
X109075000Y-43660000D03*
X109075000Y-42390000D03*
X109075000Y-41120000D03*
X109075000Y-39850000D03*
%TD*%
D12*
%TO.C,C111*%
X173331621Y-150610000D03*
X173331621Y-149650000D03*
%TD*%
%TO.C,C13*%
X69847444Y-96787275D03*
X69847444Y-95827275D03*
%TD*%
D29*
%TO.C,C95*%
X143235000Y-57300000D03*
X144195000Y-57300000D03*
%TD*%
D34*
%TO.C,R97*%
X81200000Y-79800000D03*
X83025000Y-79800000D03*
%TD*%
D17*
%TO.C,D4*%
X58949944Y-138152275D03*
X58949944Y-142452275D03*
%TD*%
D18*
%TO.C,U12*%
X77850000Y-92677275D03*
X77200000Y-92677275D03*
X76550000Y-92677275D03*
X76550000Y-94577275D03*
X77850000Y-94577275D03*
%TD*%
D24*
%TO.C,D51*%
X108171666Y-54440000D03*
X109141666Y-54440000D03*
%TD*%
D14*
%TO.C,R77*%
X71400000Y-157090000D03*
X71400000Y-158110000D03*
%TD*%
%TO.C,R85*%
X74400000Y-157090000D03*
X74400000Y-158110000D03*
%TD*%
%TO.C,R12*%
X79572444Y-105207275D03*
X79572444Y-106227275D03*
%TD*%
%TO.C,R6*%
X63172444Y-105207275D03*
X63172444Y-106227275D03*
%TD*%
D11*
%TO.C,R166*%
X125860000Y-47810000D03*
X125860000Y-46790000D03*
%TD*%
D28*
%TO.C,D56*%
X130030000Y-47760000D03*
X130030000Y-46790000D03*
%TD*%
D27*
%TO.C,C10*%
X52672444Y-145227275D03*
X51712444Y-145227275D03*
%TD*%
D41*
%TO.C,U21*%
X51712444Y-151902275D03*
X52982444Y-151902275D03*
X54252444Y-151902275D03*
X55522444Y-151902275D03*
X55522444Y-146952275D03*
X54252444Y-146952275D03*
X52982444Y-146952275D03*
X51712444Y-146952275D03*
%TD*%
D13*
%TO.C,C98*%
X131600000Y-74435000D03*
X131600000Y-75395000D03*
%TD*%
D12*
%TO.C,C56*%
X66400000Y-160080000D03*
X66400000Y-159120000D03*
%TD*%
D20*
%TO.C,L2*%
X54902500Y-75825000D03*
X71147500Y-75825000D03*
%TD*%
D11*
%TO.C,R158*%
X151140000Y-79315000D03*
X151140000Y-78295000D03*
%TD*%
D17*
%TO.C,D8*%
X62499944Y-126977275D03*
X62499944Y-131277275D03*
%TD*%
D22*
%TO.C,R141*%
X108171666Y-52280000D03*
X109191666Y-52280000D03*
%TD*%
D13*
%TO.C,C58*%
X92225000Y-97460000D03*
X92225000Y-98420000D03*
%TD*%
D23*
%TO.C,D37*%
X98900000Y-109927500D03*
X98900000Y-105627500D03*
%TD*%
%TO.C,D29*%
X89425000Y-109927500D03*
X89425000Y-105627500D03*
%TD*%
D18*
%TO.C,U3*%
X35797444Y-92677275D03*
X35147444Y-92677275D03*
X34497444Y-92677275D03*
X34497444Y-94577275D03*
X35797444Y-94577275D03*
%TD*%
D14*
%TO.C,R89*%
X76400000Y-157090000D03*
X76400000Y-158110000D03*
%TD*%
D12*
%TO.C,C62*%
X71400000Y-160080000D03*
X71400000Y-159120000D03*
%TD*%
%TO.C,C14*%
X75347444Y-96787275D03*
X75347444Y-95827275D03*
%TD*%
D34*
%TO.C,R94*%
X76790000Y-79800000D03*
X78615000Y-79800000D03*
%TD*%
D10*
%TO.C,U1*%
X35797444Y-91277275D03*
X36447444Y-91277275D03*
X37097444Y-91277275D03*
X37097444Y-89377275D03*
X35797444Y-89377275D03*
%TD*%
D11*
%TO.C,R138*%
X166981621Y-136650000D03*
X166981621Y-135630000D03*
%TD*%
D12*
%TO.C,C4*%
X53447444Y-96787275D03*
X53447444Y-95827275D03*
%TD*%
D34*
%TO.C,R98*%
X81200000Y-82750000D03*
X83025000Y-82750000D03*
%TD*%
D27*
%TO.C,C28*%
X38472444Y-145227275D03*
X37512444Y-145227275D03*
%TD*%
D32*
%TO.C,J11*%
X153230000Y-130180000D03*
X153230000Y-135220000D03*
X155770000Y-130180000D03*
X155770000Y-135220000D03*
X158310000Y-130180000D03*
X158310000Y-135220000D03*
%TD*%
D23*
%TO.C,D41*%
X106300000Y-133060833D03*
X106300000Y-128760833D03*
%TD*%
D30*
%TO.C,R104*%
X34352500Y-66200000D03*
X32702500Y-66200000D03*
%TD*%
D47*
%TO.C,R93*%
X89700000Y-75387500D03*
X89700000Y-78312500D03*
%TD*%
D12*
%TO.C,C6*%
X50897444Y-106167275D03*
X50897444Y-105207275D03*
%TD*%
D11*
%TO.C,R4*%
X55027444Y-106227275D03*
X55027444Y-105207275D03*
%TD*%
D13*
%TO.C,C117*%
X175801621Y-149650000D03*
X175801621Y-150610000D03*
%TD*%
D48*
%TO.C,Y1*%
X128500000Y-48850000D03*
X127100000Y-48850000D03*
X127100000Y-49950000D03*
X128500000Y-49950000D03*
%TD*%
D12*
%TO.C,C71*%
X76400000Y-160080000D03*
X76400000Y-159120000D03*
%TD*%
D14*
%TO.C,R8*%
X74077444Y-105207275D03*
X74077444Y-106227275D03*
%TD*%
D27*
%TO.C,C100*%
X120965000Y-68800000D03*
X120005000Y-68800000D03*
%TD*%
D12*
%TO.C,C24*%
X34497444Y-106167275D03*
X34497444Y-105207275D03*
%TD*%
D13*
%TO.C,C106*%
X150690000Y-149650000D03*
X150690000Y-150610000D03*
%TD*%
D17*
%TO.C,D11*%
X66049944Y-138152275D03*
X66049944Y-142452275D03*
%TD*%
D23*
%TO.C,D33*%
X96500000Y-133060833D03*
X96500000Y-128760833D03*
%TD*%
D12*
%TO.C,C16*%
X72797444Y-106167275D03*
X72797444Y-105207275D03*
%TD*%
D27*
%TO.C,C29*%
X45572444Y-145227275D03*
X44612444Y-145227275D03*
%TD*%
D41*
%TO.C,U32*%
X44612444Y-151902275D03*
X45882444Y-151902275D03*
X47152444Y-151902275D03*
X48422444Y-151902275D03*
X48422444Y-146952275D03*
X47152444Y-146952275D03*
X45882444Y-146952275D03*
X44612444Y-146952275D03*
%TD*%
D11*
%TO.C,R75*%
X98930000Y-98420000D03*
X98930000Y-97400000D03*
%TD*%
D22*
%TO.C,R142*%
X108171666Y-53360000D03*
X109191666Y-53360000D03*
%TD*%
D30*
%TO.C,R100*%
X45677500Y-64922499D03*
X44027500Y-64922499D03*
%TD*%
D18*
%TO.C,U10*%
X48150000Y-92677275D03*
X47500000Y-92677275D03*
X46850000Y-92677275D03*
X46850000Y-94577275D03*
X48150000Y-94577275D03*
%TD*%
D26*
%TO.C,U28*%
X80842444Y-98532275D03*
X79572444Y-98532275D03*
X78302444Y-98532275D03*
X77032444Y-98532275D03*
X77032444Y-103482275D03*
X78302444Y-103482275D03*
X79572444Y-103482275D03*
X80842444Y-103482275D03*
%TD*%
D34*
%TO.C,R96*%
X81200000Y-76850000D03*
X83025000Y-76850000D03*
%TD*%
D18*
%TO.C,U11*%
X68600000Y-92677275D03*
X67950000Y-92677275D03*
X67300000Y-92677275D03*
X67300000Y-94577275D03*
X68600000Y-94577275D03*
%TD*%
D17*
%TO.C,D42*%
X110900000Y-128805833D03*
X110900000Y-133105833D03*
%TD*%
D14*
%TO.C,R74*%
X68400000Y-157090000D03*
X68400000Y-158110000D03*
%TD*%
D19*
%TO.C,R111*%
X146630000Y-134619000D03*
X145610000Y-134619000D03*
%TD*%
M02*
