%TF.GenerationSoftware,KiCad,Pcbnew,9.0.1*%
%TF.CreationDate,2026-03-08T18:53:39+01:00*%
%TF.ProjectId,RT_STACK,52545f53-5441-4434-9b2e-6b696361645f,rev?*%
%TF.SameCoordinates,Original*%
%TF.FileFunction,Paste,Bot*%
%TF.FilePolarity,Positive*%
%FSLAX46Y46*%
G04 Gerber Fmt 4.6, Leading zero omitted, Abs format (unit mm)*
G04 Created by KiCad (PCBNEW 9.0.1) date 2026-03-08 18:53:39*
%MOMM*%
%LPD*%
G01*
G04 APERTURE LIST*
G04 Aperture macros list*
%AMRoundRect*
0 Rectangle with rounded corners*
0 $1 Rounding radius*
0 $2 $3 $4 $5 $6 $7 $8 $9 X,Y pos of 4 corners*
0 Add a 4 corners polygon primitive as box body*
4,1,4,$2,$3,$4,$5,$6,$7,$8,$9,$2,$3,0*
0 Add four circle primitives for the rounded corners*
1,1,$1+$1,$2,$3*
1,1,$1+$1,$4,$5*
1,1,$1+$1,$6,$7*
1,1,$1+$1,$8,$9*
0 Add four rect primitives between the rounded corners*
20,1,$1+$1,$2,$3,$4,$5,0*
20,1,$1+$1,$4,$5,$6,$7,0*
20,1,$1+$1,$6,$7,$8,$9,0*
20,1,$1+$1,$8,$9,$2,$3,0*%
G04 Aperture macros list end*
%ADD10R,0.800000X4.600000*%
%ADD11R,10.800000X9.400000*%
%ADD12RoundRect,0.135000X-0.185000X0.135000X-0.185000X-0.135000X0.185000X-0.135000X0.185000X0.135000X0*%
%ADD13RoundRect,0.250000X-1.125000X1.275000X-1.125000X-1.275000X1.125000X-1.275000X1.125000X1.275000X0*%
%ADD14RoundRect,0.250000X-0.350000X0.850000X-0.350000X-0.850000X0.350000X-0.850000X0.350000X0.850000X0*%
%ADD15RoundRect,0.250000X1.275000X1.125000X-1.275000X1.125000X-1.275000X-1.125000X1.275000X-1.125000X0*%
%ADD16RoundRect,0.250000X0.850000X0.350000X-0.850000X0.350000X-0.850000X-0.350000X0.850000X-0.350000X0*%
%ADD17RoundRect,0.140000X-0.170000X0.140000X-0.170000X-0.140000X0.170000X-0.140000X0.170000X0.140000X0*%
%ADD18RoundRect,0.250000X1.125000X-1.275000X1.125000X1.275000X-1.125000X1.275000X-1.125000X-1.275000X0*%
%ADD19RoundRect,0.250000X0.350000X-0.850000X0.350000X0.850000X-0.350000X0.850000X-0.350000X-0.850000X0*%
%ADD20RoundRect,0.250000X-2.025000X-2.375000X2.025000X-2.375000X2.025000X2.375000X-2.025000X2.375000X0*%
%ADD21RoundRect,0.250000X-2.050000X-0.300000X2.050000X-0.300000X2.050000X0.300000X-2.050000X0.300000X0*%
%ADD22RoundRect,0.250000X-1.275000X-1.125000X1.275000X-1.125000X1.275000X1.125000X-1.275000X1.125000X0*%
%ADD23RoundRect,0.250000X-0.850000X-0.350000X0.850000X-0.350000X0.850000X0.350000X-0.850000X0.350000X0*%
%ADD24RoundRect,0.250000X2.025000X2.375000X-2.025000X2.375000X-2.025000X-2.375000X2.025000X-2.375000X0*%
%ADD25RoundRect,0.250000X2.050000X0.300000X-2.050000X0.300000X-2.050000X-0.300000X2.050000X-0.300000X0*%
G04 APERTURE END LIST*
D10*
%TO.C,IC12*%
X126716667Y-95974000D03*
X127986667Y-95974000D03*
X129256667Y-95974000D03*
X130526667Y-95974000D03*
X131796667Y-95974000D03*
X133066667Y-95974000D03*
X134336667Y-95974000D03*
D11*
X130526667Y-105124000D03*
%TD*%
D10*
%TO.C,IC11*%
X140590000Y-95974000D03*
X141860000Y-95974000D03*
X143130000Y-95974000D03*
X144400000Y-95974000D03*
X145670000Y-95974000D03*
X146940000Y-95974000D03*
X148210000Y-95974000D03*
D11*
X144400000Y-105124000D03*
%TD*%
D10*
%TO.C,IC10*%
X154590000Y-95974000D03*
X155860000Y-95974000D03*
X157130000Y-95974000D03*
X158400000Y-95974000D03*
X159670000Y-95974000D03*
X160940000Y-95974000D03*
X162210000Y-95974000D03*
D11*
X158400000Y-105124000D03*
%TD*%
D10*
%TO.C,IC9*%
X168526667Y-95974000D03*
X169796667Y-95974000D03*
X171066667Y-95974000D03*
X172336667Y-95974000D03*
X173606667Y-95974000D03*
X174876667Y-95974000D03*
X176146667Y-95974000D03*
D11*
X172336667Y-105124000D03*
%TD*%
D10*
%TO.C,IC8*%
X126716667Y-115037000D03*
X127986667Y-115037000D03*
X129256667Y-115037000D03*
X130526667Y-115037000D03*
X131796667Y-115037000D03*
X133066667Y-115037000D03*
X134336667Y-115037000D03*
D11*
X130526667Y-124187000D03*
%TD*%
D10*
%TO.C,IC7*%
X140590000Y-115037000D03*
X141860000Y-115037000D03*
X143130000Y-115037000D03*
X144400000Y-115037000D03*
X145670000Y-115037000D03*
X146940000Y-115037000D03*
X148210000Y-115037000D03*
D11*
X144400000Y-124187000D03*
%TD*%
D10*
%TO.C,IC6*%
X154590000Y-115037000D03*
X155860000Y-115037000D03*
X157130000Y-115037000D03*
X158400000Y-115037000D03*
X159670000Y-115037000D03*
X160940000Y-115037000D03*
X162210000Y-115037000D03*
D11*
X158400000Y-124187000D03*
%TD*%
D10*
%TO.C,IC5*%
X168526667Y-115037000D03*
X169796667Y-115037000D03*
X171066667Y-115037000D03*
X172336667Y-115037000D03*
X173606667Y-115037000D03*
X174876667Y-115037000D03*
X176146667Y-115037000D03*
D11*
X172336667Y-124187000D03*
%TD*%
D10*
%TO.C,IC4*%
X126716667Y-134100000D03*
X127986667Y-134100000D03*
X129256667Y-134100000D03*
X130526667Y-134100000D03*
X131796667Y-134100000D03*
X133066667Y-134100000D03*
X134336667Y-134100000D03*
D11*
X130526667Y-143250000D03*
%TD*%
D10*
%TO.C,IC3*%
X140590000Y-134100000D03*
X141860000Y-134100000D03*
X143130000Y-134100000D03*
X144400000Y-134100000D03*
X145670000Y-134100000D03*
X146940000Y-134100000D03*
X148210000Y-134100000D03*
D11*
X144400000Y-143250000D03*
%TD*%
D10*
%TO.C,IC2*%
X154590000Y-134100000D03*
X155860000Y-134100000D03*
X157130000Y-134100000D03*
X158400000Y-134100000D03*
X159670000Y-134100000D03*
X160940000Y-134100000D03*
X162210000Y-134100000D03*
D11*
X158400000Y-143250000D03*
%TD*%
D10*
%TO.C,IC1*%
X168526667Y-134100000D03*
X169796667Y-134100000D03*
X171066667Y-134100000D03*
X172336667Y-134100000D03*
X173606667Y-134100000D03*
X174876667Y-134100000D03*
X176146667Y-134100000D03*
D11*
X172336667Y-143250000D03*
%TD*%
D12*
%TO.C,R48*%
X133066667Y-91974000D03*
X133066667Y-92994000D03*
%TD*%
D13*
%TO.C,Q17*%
X42724944Y-129602275D03*
X39674944Y-129602275D03*
X42724944Y-132952275D03*
X39674944Y-132952275D03*
D14*
X38919944Y-124977275D03*
X43479944Y-124977275D03*
%TD*%
D15*
%TO.C,Q31*%
X43550000Y-68025000D03*
X43550000Y-64975000D03*
X40200000Y-68025000D03*
X40200000Y-64975000D03*
D16*
X48175000Y-64220000D03*
X48175000Y-68780000D03*
%TD*%
D13*
%TO.C,Q12*%
X78224944Y-129602275D03*
X75174944Y-129602275D03*
X78224944Y-132952275D03*
X75174944Y-132952275D03*
D14*
X74419944Y-124977275D03*
X78979944Y-124977275D03*
%TD*%
D17*
%TO.C,C45*%
X176146667Y-92004000D03*
X176146667Y-92964000D03*
%TD*%
D13*
%TO.C,Q27*%
X110125000Y-129258333D03*
X107075000Y-129258333D03*
X110125000Y-132608333D03*
X107075000Y-132608333D03*
D14*
X106320000Y-124633333D03*
X110880000Y-124633333D03*
%TD*%
D17*
%TO.C,C44*%
X134336667Y-111067000D03*
X134336667Y-112027000D03*
%TD*%
D18*
%TO.C,Q7*%
X72118444Y-116902275D03*
X75168444Y-116902275D03*
X72118444Y-113552275D03*
X75168444Y-113552275D03*
D19*
X75923444Y-121527275D03*
X71363444Y-121527275D03*
%TD*%
D17*
%TO.C,C42*%
X158400000Y-111067000D03*
X158400000Y-112027000D03*
%TD*%
D15*
%TO.C,Q36*%
X170775000Y-163195000D03*
X170775000Y-160145000D03*
X167425000Y-163195000D03*
X167425000Y-160145000D03*
D16*
X175400000Y-159390000D03*
X175400000Y-163950000D03*
%TD*%
D12*
%TO.C,R30*%
X159670000Y-111037000D03*
X159670000Y-112057000D03*
%TD*%
%TO.C,R27*%
X145670000Y-130100000D03*
X145670000Y-131120000D03*
%TD*%
D20*
%TO.C,D50*%
X40950000Y-73050000D03*
X40950000Y-78600000D03*
X45800000Y-73050000D03*
X45800000Y-78600000D03*
D21*
X34225000Y-78365000D03*
X34225000Y-73285000D03*
%TD*%
D13*
%TO.C,Q19*%
X90633333Y-129258333D03*
X87583333Y-129258333D03*
X90633333Y-132608333D03*
X87583333Y-132608333D03*
D14*
X86828333Y-124633333D03*
X91388333Y-124633333D03*
%TD*%
D22*
%TO.C,Q32*%
X61822500Y-64975000D03*
X61822500Y-68025000D03*
X65172500Y-64975000D03*
X65172500Y-68025000D03*
D23*
X57197500Y-68780000D03*
X57197500Y-64220000D03*
%TD*%
D12*
%TO.C,R58*%
X155860000Y-91974000D03*
X155860000Y-92994000D03*
%TD*%
D18*
%TO.C,Q1*%
X57918444Y-116902275D03*
X60968444Y-116902275D03*
X57918444Y-113552275D03*
X60968444Y-113552275D03*
D19*
X61723444Y-121527275D03*
X57163444Y-121527275D03*
%TD*%
D18*
%TO.C,Q15*%
X50818444Y-116902275D03*
X53868444Y-116902275D03*
X50818444Y-113552275D03*
X53868444Y-113552275D03*
D19*
X54623444Y-121527275D03*
X50063444Y-121527275D03*
%TD*%
D17*
%TO.C,C31*%
X176146667Y-130160000D03*
X176146667Y-131120000D03*
%TD*%
D13*
%TO.C,Q2*%
X53374944Y-140777275D03*
X50324944Y-140777275D03*
X53374944Y-144127275D03*
X50324944Y-144127275D03*
D14*
X49569944Y-136152275D03*
X54129944Y-136152275D03*
%TD*%
D12*
%TO.C,R32*%
X155860000Y-130100000D03*
X155860000Y-131120000D03*
%TD*%
%TO.C,R62*%
X129256667Y-111037000D03*
X129256667Y-112057000D03*
%TD*%
%TO.C,R25*%
X173606667Y-130100000D03*
X173606667Y-131120000D03*
%TD*%
%TO.C,R21*%
X146940000Y-130100000D03*
X146940000Y-131120000D03*
%TD*%
D17*
%TO.C,C35*%
X176146667Y-111067000D03*
X176146667Y-112027000D03*
%TD*%
D12*
%TO.C,R47*%
X146940000Y-91974000D03*
X146940000Y-92994000D03*
%TD*%
D13*
%TO.C,Q18*%
X49824944Y-129602275D03*
X46774944Y-129602275D03*
X49824944Y-132952275D03*
X46774944Y-132952275D03*
D14*
X46019944Y-124977275D03*
X50579944Y-124977275D03*
%TD*%
D17*
%TO.C,C39*%
X144400000Y-130160000D03*
X144400000Y-131120000D03*
%TD*%
D13*
%TO.C,Q4*%
X60474944Y-140777275D03*
X57424944Y-140777275D03*
X60474944Y-144127275D03*
X57424944Y-144127275D03*
D14*
X56669944Y-136152275D03*
X61229944Y-136152275D03*
%TD*%
D12*
%TO.C,R23*%
X174876667Y-111037000D03*
X174876667Y-112057000D03*
%TD*%
D20*
%TO.C,U45*%
X166175000Y-67325000D03*
X166175000Y-72875000D03*
X171025000Y-67325000D03*
X171025000Y-72875000D03*
D21*
X159450000Y-72640000D03*
X159450000Y-70100000D03*
X159450000Y-67560000D03*
%TD*%
D12*
%TO.C,R50*%
X131796667Y-111037000D03*
X131796667Y-112057000D03*
%TD*%
%TO.C,R53*%
X145670000Y-91974000D03*
X145670000Y-92994000D03*
%TD*%
D17*
%TO.C,C53*%
X144400000Y-92004000D03*
X144400000Y-92964000D03*
%TD*%
%TO.C,C33*%
X148210000Y-130160000D03*
X148210000Y-131120000D03*
%TD*%
D13*
%TO.C,Q16*%
X46274944Y-140777275D03*
X43224944Y-140777275D03*
X46274944Y-144127275D03*
X43224944Y-144127275D03*
D14*
X42469944Y-136152275D03*
X47029944Y-136152275D03*
%TD*%
D17*
%TO.C,C43*%
X148210000Y-111067000D03*
X148210000Y-112027000D03*
%TD*%
D12*
%TO.C,R59*%
X141860000Y-91974000D03*
X141860000Y-92994000D03*
%TD*%
%TO.C,R39*%
X143130000Y-130100000D03*
X143130000Y-131120000D03*
%TD*%
%TO.C,R65*%
X143130000Y-91974000D03*
X143130000Y-92994000D03*
%TD*%
%TO.C,R64*%
X157130000Y-91974000D03*
X157130000Y-92994000D03*
%TD*%
D13*
%TO.C,Q28*%
X108925000Y-140825000D03*
X105875000Y-140825000D03*
X108925000Y-144175000D03*
X105875000Y-144175000D03*
D14*
X105120000Y-136200000D03*
X109680000Y-136200000D03*
%TD*%
D13*
%TO.C,Q22*%
X91941667Y-117691667D03*
X88891667Y-117691667D03*
X91941667Y-121041667D03*
X88891667Y-121041667D03*
D14*
X88136667Y-113066667D03*
X92696667Y-113066667D03*
%TD*%
D13*
%TO.C,Q25*%
X102725000Y-106125000D03*
X99675000Y-106125000D03*
X102725000Y-109475000D03*
X99675000Y-109475000D03*
D14*
X98920000Y-101500000D03*
X103480000Y-101500000D03*
%TD*%
D12*
%TO.C,R29*%
X173606667Y-111037000D03*
X173606667Y-112057000D03*
%TD*%
%TO.C,R56*%
X127986667Y-111037000D03*
X127986667Y-112057000D03*
%TD*%
%TO.C,R24*%
X160940000Y-111037000D03*
X160940000Y-112057000D03*
%TD*%
D17*
%TO.C,C37*%
X172336667Y-130160000D03*
X172336667Y-131120000D03*
%TD*%
D12*
%TO.C,R38*%
X157130000Y-130100000D03*
X157130000Y-131120000D03*
%TD*%
D17*
%TO.C,C41*%
X172336667Y-111067000D03*
X172336667Y-112027000D03*
%TD*%
D12*
%TO.C,R61*%
X143130000Y-111037000D03*
X143130000Y-112057000D03*
%TD*%
D17*
%TO.C,C40*%
X130526667Y-130160000D03*
X130526667Y-131120000D03*
%TD*%
D13*
%TO.C,Q20*%
X89325000Y-140825000D03*
X86275000Y-140825000D03*
X89325000Y-144175000D03*
X86275000Y-144175000D03*
D14*
X85520000Y-136200000D03*
X90080000Y-136200000D03*
%TD*%
D12*
%TO.C,R66*%
X129256667Y-91974000D03*
X129256667Y-92994000D03*
%TD*%
D13*
%TO.C,Q10*%
X74674944Y-140777275D03*
X71624944Y-140777275D03*
X74674944Y-144127275D03*
X71624944Y-144127275D03*
D14*
X70869944Y-136152275D03*
X75429944Y-136152275D03*
%TD*%
D15*
%TO.C,Q34*%
X170775000Y-169597500D03*
X170775000Y-166547500D03*
X167425000Y-169597500D03*
X167425000Y-166547500D03*
D16*
X175400000Y-165792500D03*
X175400000Y-170352500D03*
%TD*%
D13*
%TO.C,Q21*%
X93250000Y-106125000D03*
X90200000Y-106125000D03*
X93250000Y-109475000D03*
X90200000Y-109475000D03*
D14*
X89445000Y-101500000D03*
X94005000Y-101500000D03*
%TD*%
D13*
%TO.C,Q29*%
X112525000Y-106125000D03*
X109475000Y-106125000D03*
X112525000Y-109475000D03*
X109475000Y-109475000D03*
D14*
X108720000Y-101500000D03*
X113280000Y-101500000D03*
%TD*%
D12*
%TO.C,R44*%
X133066667Y-111037000D03*
X133066667Y-112057000D03*
%TD*%
%TO.C,R37*%
X171066667Y-130100000D03*
X171066667Y-131120000D03*
%TD*%
%TO.C,R49*%
X145670000Y-111037000D03*
X145670000Y-112057000D03*
%TD*%
D17*
%TO.C,C34*%
X134336667Y-130160000D03*
X134336667Y-131120000D03*
%TD*%
D13*
%TO.C,Q30*%
X111325000Y-117691667D03*
X108275000Y-117691667D03*
X111325000Y-121041667D03*
X108275000Y-121041667D03*
D14*
X107520000Y-113066667D03*
X112080000Y-113066667D03*
%TD*%
D12*
%TO.C,R43*%
X146940000Y-111037000D03*
X146940000Y-112057000D03*
%TD*%
%TO.C,R45*%
X174876667Y-91974000D03*
X174876667Y-92994000D03*
%TD*%
%TO.C,R34*%
X127986667Y-130100000D03*
X127986667Y-131120000D03*
%TD*%
D13*
%TO.C,Q26*%
X101525000Y-117691667D03*
X98475000Y-117691667D03*
X101525000Y-121041667D03*
X98475000Y-121041667D03*
D14*
X97720000Y-113066667D03*
X102280000Y-113066667D03*
%TD*%
D12*
%TO.C,R51*%
X173606667Y-91974000D03*
X173606667Y-92994000D03*
%TD*%
D17*
%TO.C,C47*%
X148210000Y-92004000D03*
X148210000Y-92964000D03*
%TD*%
D18*
%TO.C,Q9*%
X79218444Y-116902275D03*
X82268444Y-116902275D03*
X79218444Y-113552275D03*
X82268444Y-113552275D03*
D19*
X83023444Y-121527275D03*
X78463444Y-121527275D03*
%TD*%
D12*
%TO.C,R40*%
X129256667Y-130100000D03*
X129256667Y-131120000D03*
%TD*%
D13*
%TO.C,Q23*%
X100325000Y-129258333D03*
X97275000Y-129258333D03*
X100325000Y-132608333D03*
X97275000Y-132608333D03*
D14*
X96520000Y-124633333D03*
X101080000Y-124633333D03*
%TD*%
D17*
%TO.C,C38*%
X158400000Y-130160000D03*
X158400000Y-131120000D03*
%TD*%
D12*
%TO.C,R63*%
X171066667Y-91974000D03*
X171066667Y-92994000D03*
%TD*%
D17*
%TO.C,C46*%
X162210000Y-92004000D03*
X162210000Y-92964000D03*
%TD*%
D12*
%TO.C,R31*%
X169796667Y-130100000D03*
X169796667Y-131120000D03*
%TD*%
D20*
%TO.C,U44*%
X166175000Y-53975000D03*
X166175000Y-59525000D03*
X171025000Y-53975000D03*
X171025000Y-59525000D03*
D21*
X159450000Y-59290000D03*
X159450000Y-56750000D03*
X159450000Y-54210000D03*
%TD*%
D17*
%TO.C,C48*%
X134336667Y-92004000D03*
X134336667Y-92964000D03*
%TD*%
D12*
%TO.C,R57*%
X169796667Y-91974000D03*
X169796667Y-92994000D03*
%TD*%
D17*
%TO.C,C52*%
X158400000Y-92004000D03*
X158400000Y-92964000D03*
%TD*%
D13*
%TO.C,Q11*%
X71124944Y-129602275D03*
X68074944Y-129602275D03*
X71124944Y-132952275D03*
X68074944Y-132952275D03*
D14*
X67319944Y-124977275D03*
X71879944Y-124977275D03*
%TD*%
D12*
%TO.C,R33*%
X141860000Y-130100000D03*
X141860000Y-131120000D03*
%TD*%
D18*
%TO.C,Q3*%
X65018444Y-116902275D03*
X68068444Y-116902275D03*
X65018444Y-113552275D03*
X68068444Y-113552275D03*
D19*
X68823444Y-121527275D03*
X64263444Y-121527275D03*
%TD*%
D12*
%TO.C,R41*%
X171066667Y-111037000D03*
X171066667Y-112057000D03*
%TD*%
%TO.C,R42*%
X157130000Y-111037000D03*
X157130000Y-112057000D03*
%TD*%
%TO.C,R20*%
X160940000Y-130100000D03*
X160940000Y-131120000D03*
%TD*%
D13*
%TO.C,Q14*%
X39174944Y-140777275D03*
X36124944Y-140777275D03*
X39174944Y-144127275D03*
X36124944Y-144127275D03*
D14*
X35369944Y-136152275D03*
X39929944Y-136152275D03*
%TD*%
D13*
%TO.C,Q24*%
X99125000Y-140825000D03*
X96075000Y-140825000D03*
X99125000Y-144175000D03*
X96075000Y-144175000D03*
D14*
X95320000Y-136200000D03*
X99880000Y-136200000D03*
%TD*%
D24*
%TO.C,D49*%
X64422500Y-78600000D03*
X64422500Y-73050000D03*
X59572500Y-78600000D03*
X59572500Y-73050000D03*
D25*
X71147500Y-73285000D03*
X71147500Y-78365000D03*
%TD*%
D17*
%TO.C,C36*%
X162210000Y-111067000D03*
X162210000Y-112027000D03*
%TD*%
D18*
%TO.C,Q13*%
X43718444Y-116902275D03*
X46768444Y-116902275D03*
X43718444Y-113552275D03*
X46768444Y-113552275D03*
D19*
X47523444Y-121527275D03*
X42963444Y-121527275D03*
%TD*%
D12*
%TO.C,R52*%
X159670000Y-91974000D03*
X159670000Y-92994000D03*
%TD*%
%TO.C,R55*%
X141860000Y-111037000D03*
X141860000Y-112057000D03*
%TD*%
%TO.C,R60*%
X127986667Y-91974000D03*
X127986667Y-92994000D03*
%TD*%
%TO.C,R36*%
X155860000Y-111037000D03*
X155860000Y-112057000D03*
%TD*%
%TO.C,R35*%
X169796667Y-111037000D03*
X169796667Y-112057000D03*
%TD*%
%TO.C,R28*%
X131796667Y-130100000D03*
X131796667Y-131120000D03*
%TD*%
D17*
%TO.C,C32*%
X162210000Y-130160000D03*
X162210000Y-131120000D03*
%TD*%
D13*
%TO.C,Q6*%
X64024944Y-129602275D03*
X60974944Y-129602275D03*
X64024944Y-132952275D03*
X60974944Y-132952275D03*
D14*
X60219944Y-124977275D03*
X64779944Y-124977275D03*
%TD*%
D17*
%TO.C,C49*%
X144400000Y-111067000D03*
X144400000Y-112027000D03*
%TD*%
%TO.C,C54*%
X130526667Y-92004000D03*
X130526667Y-92964000D03*
%TD*%
%TO.C,C50*%
X130526667Y-111067000D03*
X130526667Y-112027000D03*
%TD*%
D13*
%TO.C,Q8*%
X67574944Y-140777275D03*
X64524944Y-140777275D03*
X67574944Y-144127275D03*
X64524944Y-144127275D03*
D14*
X63769944Y-136152275D03*
X68329944Y-136152275D03*
%TD*%
D12*
%TO.C,R19*%
X174876667Y-130100000D03*
X174876667Y-131120000D03*
%TD*%
D13*
%TO.C,Q5*%
X56924944Y-129602275D03*
X53874944Y-129602275D03*
X56924944Y-132952275D03*
X53874944Y-132952275D03*
D14*
X53119944Y-124977275D03*
X57679944Y-124977275D03*
%TD*%
D12*
%TO.C,R54*%
X131796667Y-91974000D03*
X131796667Y-92994000D03*
%TD*%
D17*
%TO.C,C51*%
X172336667Y-92004000D03*
X172336667Y-92964000D03*
%TD*%
D12*
%TO.C,R26*%
X159670000Y-130100000D03*
X159670000Y-131120000D03*
%TD*%
%TO.C,R46*%
X160940000Y-91974000D03*
X160940000Y-92994000D03*
%TD*%
%TO.C,R22*%
X133066667Y-130100000D03*
X133066667Y-131120000D03*
%TD*%
M02*
